<svg width="14" height="13" viewBox="0 0 14 13" fill="none" xmlns="http://www.w3.org/2000/svg">
<g clip-path="url(#clip0_2033_2780)">
<path d="M1.20188 12.6055H2.22223C2.43818 12.6055 2.60284 12.5479 2.71621 12.4327C2.82958 12.3175 2.88627 12.1538 2.88627 11.9415V2.82308C2.88627 2.61073 2.82958 2.44607 2.71621 2.32909C2.60284 2.21212 2.43818 2.15364 2.22223 2.15364H1.20188C0.985932 2.15364 0.821272 2.21212 0.7079 2.32909C0.594528 2.44607 0.537842 2.61073 0.537842 2.82308V11.9415C0.537842 12.1538 0.594528 12.3175 0.7079 12.4327C0.821272 12.5479 0.985932 12.6055 1.20188 12.6055ZM4.18195 12.6055H6.36843C6.58437 12.6055 6.74902 12.5479 6.86238 12.4327C6.97575 12.3175 7.03243 12.1538 7.03243 11.9415V4.66402C7.03243 4.45528 6.97575 4.29242 6.86238 4.17544C6.74902 4.05847 6.58437 3.99999 6.36843 3.99999H4.18195C3.96601 3.99999 3.80045 4.05847 3.68527 4.17544C3.5701 4.29242 3.51252 4.45528 3.51252 4.66402V11.9415C3.51252 12.1538 3.5701 12.3175 3.68527 12.4327C3.80045 12.5479 3.96601 12.6055 4.18195 12.6055ZM4.69483 5.92732C4.59765 5.92732 4.51667 5.89492 4.45189 5.83014C4.3871 5.76536 4.35471 5.68618 4.35471 5.5926C4.35471 5.49902 4.3871 5.42074 4.45189 5.35776C4.51667 5.29477 4.59765 5.26328 4.69483 5.26328H5.86634C5.95992 5.26328 6.0382 5.29477 6.1012 5.35776C6.16418 5.42074 6.19567 5.49902 6.19567 5.5926C6.19567 5.68618 6.16418 5.76536 6.1012 5.83014C6.0382 5.89492 5.95992 5.92732 5.86634 5.92732H4.69483ZM4.69483 11.3476C4.59765 11.3476 4.51667 11.3152 4.45189 11.2504C4.3871 11.1856 4.35471 11.1065 4.35471 11.0129C4.35471 10.9193 4.3871 10.841 4.45189 10.7781C4.51667 10.7151 4.59765 10.6836 4.69483 10.6836H5.86634C5.95992 10.6836 6.0382 10.7151 6.1012 10.7781C6.16418 10.841 6.19567 10.9193 6.19567 11.0129C6.19567 11.1065 6.16418 11.1856 6.1012 11.2504C6.0382 11.3152 5.95992 11.3476 5.86634 11.3476H4.69483ZM8.32814 12.6055H9.66161C9.87755 12.6055 10.0422 12.5479 10.1556 12.4327C10.269 12.3175 10.3257 12.1538 10.3257 11.9415V1.32764C10.3257 1.11529 10.269 0.950632 10.1556 0.83366C10.0422 0.716689 9.87755 0.658203 9.66161 0.658203H8.32814C8.11221 0.658203 7.94754 0.716689 7.83414 0.83366C7.72077 0.950632 7.66409 1.11529 7.66409 1.32764V11.9415C7.66409 12.1538 7.72077 12.3175 7.83414 12.4327C7.94754 12.5479 8.11221 12.6055 8.32814 12.6055ZM11.9992 12.6325L12.8684 12.5083C13.0808 12.4795 13.2365 12.4021 13.3354 12.2762C13.4344 12.1502 13.4713 11.981 13.4461 11.7687L12.415 2.81227C12.3897 2.60353 12.3151 2.44697 12.1909 2.34259C12.0667 2.23822 11.8967 2.20043 11.6807 2.22922L10.817 2.35339C10.6046 2.38218 10.4489 2.45956 10.3499 2.58553C10.251 2.7115 10.2123 2.87886 10.2339 3.08761L11.2704 12.044C11.2956 12.2564 11.3703 12.4147 11.4944 12.5191C11.6186 12.6235 11.7869 12.6613 11.9992 12.6325Z" fill="white"/>
</g>
<defs>
<clipPath id="clip0_2033_2780">
<rect width="12.9159" height="12.3252" fill="white" transform="translate(0.537598 0.657227)"/>
</clipPath>
</defs>
</svg>
