<svg width="12" height="14" viewBox="0 0 12 14" fill="none" xmlns="http://www.w3.org/2000/svg">
<path d="M8.2 1H3.88C2.28942 1 1 2.28942 1 3.88V9.64" stroke="#E4E4E4" stroke-width="1.44"/>
<path d="M3.87985 7.12016C3.87985 6.259 3.88092 5.6734 3.93111 5.22819C3.97967 4.79748 4.06645 4.58816 4.17742 4.44354C4.25403 4.3437 4.3434 4.25434 4.44323 4.17773C4.58786 4.06675 4.79717 3.97997 5.22788 3.93142C5.6731 3.88123 6.2587 3.88016 7.11985 3.88016C7.981 3.88016 8.56661 3.88123 9.01182 3.93142C9.44253 3.97997 9.65184 4.06675 9.79647 4.17773C9.89631 4.25434 9.98567 4.3437 10.0623 4.44354C10.1733 4.58816 10.26 4.79748 10.3086 5.22819C10.3588 5.6734 10.3599 6.259 10.3599 7.12016V10.0002C10.3599 10.8613 10.3588 11.4469 10.3086 11.8921C10.26 12.3228 10.1733 12.5322 10.0623 12.6768C9.98567 12.7766 9.89631 12.866 9.79647 12.9426C9.65184 13.0536 9.44253 13.1403 9.01182 13.1889C8.56661 13.2391 7.981 13.2402 7.11985 13.2402C6.2587 13.2402 5.6731 13.2391 5.22788 13.1889C4.79717 13.1403 4.58786 13.0536 4.44323 12.9426C4.3434 12.866 4.25403 12.7766 4.17742 12.6768C4.06645 12.5322 3.97967 12.3228 3.93111 11.8921C3.88092 11.4469 3.87985 10.8613 3.87985 10.0002V7.12016Z" stroke="#E4E4E4" stroke-width="1.44"/>
</svg>
