<svg width="9" height="10" viewBox="0 0 9 10" fill="none" xmlns="http://www.w3.org/2000/svg">
<path fill-rule="evenodd" clip-rule="evenodd" d="M7.24633 3.23659C8.08535 1.69257 8.3996 0.487119 8.20986 0.308051C8.0474 0.153887 6.70379 0.646621 6.05274 1.14232C5.92823 1.23838 5.42304 2.68693 5.26413 2.74978C5.12835 2.80552 5.1491 1.87342 5.22559 1.46488C4.59411 1.75839 3.53334 2.51557 2.94751 3.04032C2.90185 3.08183 2.78386 4.98102 2.72931 5.03794C2.61784 5.14942 2.28223 3.75185 2.18855 3.87163C0.846127 5.5793 0.243106 7.48383 0.802842 8.30208C0.268009 9.16304 0 9.7204 0 9.7204L0.412094 9.70439C0.661129 9.27807 0.908386 8.87783 1.15446 8.49005L1.17106 8.49894C1.76281 8.55705 3.20366 8.39043 4.64214 7.04446C4.64214 7.04446 3.84167 6.5873 3.97211 6.45033C4.10137 6.31277 5.34359 5.90364 5.47344 5.74947C5.9389 5.19329 6.20216 4.93477 6.55496 4.39401C6.64806 4.25289 5.58788 4.50963 5.67385 4.37029C5.75746 4.2351 5.95194 3.54788 7.24633 3.23659Z" fill="#B0B0B0"/>
</svg>
