<svg width="10" height="14" viewBox="0 0 10 14" fill="none" xmlns="http://www.w3.org/2000/svg">
<path d="M2.77944 13.3924C3.95419 13.3924 4.90189 12.4447 4.90189 11.2699V9.14746H2.77944C1.60468 9.14746 0.656982 10.0952 0.656982 11.2699C0.656982 12.4447 1.60468 13.3924 2.77944 13.3924Z" fill="#0ACF83"/>
<path d="M0.656982 7.0248C0.656982 5.85004 1.60468 4.90234 2.77944 4.90234H4.90189V9.14725H2.77944C1.60468 9.14725 0.656982 8.19955 0.656982 7.0248Z" fill="#A259FF"/>
<path d="M0.656982 2.77968C0.656982 1.60493 1.60468 0.657227 2.77944 0.657227H4.90189V4.90213H2.77944C1.60468 4.90213 0.656982 3.95443 0.656982 2.77968Z" fill="#F24E1E"/>
<path d="M4.90186 0.658203H7.02431C8.19906 0.658203 9.14676 1.6059 9.14676 2.78066C9.14676 3.95541 8.19906 4.90311 7.02431 4.90311H4.90186V0.658203Z" fill="#FF7262"/>
<path d="M9.14676 7.0248C9.14676 8.19955 8.19906 9.14725 7.02431 9.14725C5.84956 9.14725 4.90186 8.19955 4.90186 7.0248C4.90186 5.85004 5.84956 4.90234 7.02431 4.90234C8.19906 4.90234 9.14676 5.85004 9.14676 7.0248Z" fill="#1ABCFE"/>
</svg>
