<svg width="14" height="14" viewBox="0 0 14 14" fill="none" xmlns="http://www.w3.org/2000/svg">
<path fill-rule="evenodd" clip-rule="evenodd" d="M6.80154 0.657227C3.14379 0.657227 0.177734 3.62263 0.177734 7.28104C0.177734 10.2077 2.07566 12.6905 4.7075 13.5665C5.03843 13.6279 5.15996 13.4228 5.15996 13.2478C5.15996 13.0899 5.15382 12.5681 5.15097 12.0146C3.30822 12.4153 2.91937 11.2331 2.91937 11.2331C2.61806 10.4675 2.18392 10.2639 2.18392 10.2639C1.58283 9.85277 2.22922 9.86133 2.22922 9.86133C2.89426 9.90794 3.2446 10.5439 3.2446 10.5439C3.83537 11.5563 4.79415 11.2637 5.17214 11.0945C5.23159 10.6664 5.40325 10.3741 5.59268 10.2087C4.12144 10.0414 2.57474 9.47336 2.57474 6.9353C2.57474 6.21213 2.8336 5.62124 3.25732 5.15727C3.18844 4.99054 2.96171 4.31684 3.32138 3.40446C3.32138 3.40446 3.87749 3.22644 5.14329 4.08343C5.67176 3.93655 6.23852 3.86273 6.80154 3.86021C7.36424 3.86273 7.93132 3.93633 8.46079 4.08321C9.72504 3.22622 10.2805 3.40424 10.2805 3.40424C10.641 4.31651 10.4143 4.99032 10.3455 5.15705C10.7703 5.62102 11.0273 6.21191 11.0273 6.93508C11.0273 9.47917 9.4777 10.0392 8.00273 10.2033C8.24042 10.4089 8.45212 10.8121 8.45212 11.43C8.45212 12.3162 8.44444 13.0295 8.44444 13.2477C8.44444 13.424 8.56378 13.6305 8.89943 13.5655C11.5297 12.6886 13.4255 10.2066 13.4255 7.28104C13.4254 3.62285 10.4596 0.657336 6.80154 0.657336V0.657227Z" fill="white"/>
<path d="M2.68679 10.1678C2.6722 10.2007 2.62043 10.2106 2.57326 10.1881C2.525 10.1666 2.49813 10.1217 2.5137 10.0887C2.52796 10.0547 2.57984 10.0454 2.62778 10.0681C2.67604 10.0897 2.70346 10.135 2.68668 10.1679L2.68679 10.1678ZM2.95509 10.4671C2.92361 10.4964 2.86185 10.4828 2.81995 10.4364C2.77651 10.3903 2.7684 10.3286 2.80054 10.2989C2.83322 10.2697 2.89311 10.2835 2.93655 10.3296C2.97977 10.3763 2.98832 10.4375 2.9552 10.4672L2.95509 10.4671ZM3.21636 10.8485C3.17578 10.8768 3.10931 10.8504 3.06828 10.7915C3.0277 10.7325 3.0277 10.6617 3.06938 10.6335C3.11029 10.6052 3.17578 10.6308 3.21746 10.6891C3.25782 10.7489 3.25782 10.8197 3.21636 10.8484V10.8485ZM3.57405 11.2172C3.53786 11.2572 3.46042 11.2465 3.40382 11.1919C3.34601 11.1385 3.32989 11.0625 3.36619 11.0226C3.40305 10.9824 3.48082 10.9936 3.53775 11.0478C3.59555 11.1011 3.61299 11.1772 3.57427 11.2171L3.57405 11.2172ZM4.06765 11.4312C4.05152 11.4831 3.97715 11.5066 3.90202 11.4845C3.8271 11.4618 3.77807 11.4011 3.79343 11.3487C3.80878 11.2964 3.8837 11.2719 3.95928 11.2955C4.03419 11.3181 4.08322 11.3784 4.06765 11.4312ZM4.60983 11.4708C4.6117 11.5254 4.54808 11.5706 4.46943 11.5717C4.39013 11.5735 4.32596 11.5292 4.32519 11.4755C4.32519 11.4203 4.38749 11.3757 4.46669 11.3741C4.54534 11.3727 4.60994 11.4166 4.60994 11.4707L4.60983 11.4708ZM5.11417 11.385C5.12361 11.4382 5.06887 11.4929 4.99067 11.5075C4.91389 11.5218 4.84259 11.4886 4.83272 11.4359C4.82328 11.3813 4.879 11.3265 4.95579 11.3124C5.0341 11.2989 5.1043 11.331 5.11417 11.3851V11.385Z" fill="white"/>
</svg>
