<svg width="13" height="13" viewBox="0 0 13 13" fill="none" xmlns="http://www.w3.org/2000/svg">
<g clip-path="url(#clip0_2033_2786)">
<path fill-rule="evenodd" clip-rule="evenodd" d="M5.17318 10.8091L4.28376 11.8097C4.16451 11.9438 4.17659 12.1492 4.31075 12.2685C4.4449 12.3877 4.65032 12.3757 4.76957 12.2415L5.6069 11.2995C5.45832 11.1322 5.31354 10.9688 5.17318 10.8091ZM7.75601 8.82387C7.92602 8.60954 8.07806 8.4062 8.21158 8.21083C8.68792 7.51385 8.95331 6.88393 8.95331 6.17558C8.95331 5.46723 8.68792 4.83731 8.21158 4.14033C7.74319 3.45498 7.04686 2.67161 6.14683 1.65908L6.14681 1.65906L6.13102 1.6413L4.76957 0.109663C4.65032 -0.0244913 4.4449 -0.0365744 4.31075 0.082674C4.17659 0.201922 4.16451 0.407346 4.28376 0.5415L5.64521 2.07313C6.56432 3.10713 7.23267 3.85997 7.67494 4.50709C8.112 5.1466 8.30331 5.64829 8.30331 6.17558C8.30331 6.70288 8.112 7.20457 7.67494 7.84407C7.56974 7.998 7.45175 8.1579 7.32064 8.32615C7.45459 8.48113 7.59942 8.64642 7.75601 8.82387Z" fill="white"/>
<path fill-rule="evenodd" clip-rule="evenodd" d="M5.1973 3.52729C5.02729 3.74163 4.87525 3.94496 4.74173 4.14033C4.26539 4.83731 4 5.46723 4 6.17558C4 6.88393 4.26539 7.51385 4.74173 8.21083C5.21012 8.89619 5.90646 9.67957 6.80651 10.6921L6.80651 10.6921L6.82229 10.7099L8.18374 12.2415C8.30299 12.3757 8.50841 12.3877 8.64256 12.2685C8.77672 12.1492 8.7888 11.9438 8.66955 11.8097L7.3081 10.278C6.38899 9.24403 5.72064 8.4912 5.27837 7.84407C4.84131 7.20457 4.65 6.70288 4.65 6.17558C4.65 5.64829 4.84131 5.1466 5.27837 4.50709C5.38357 4.35317 5.50156 4.19326 5.63267 4.02502C5.49872 3.87003 5.35389 3.70475 5.1973 3.52729ZM7.34641 1.05166C7.49499 1.21894 7.63978 1.38234 7.78013 1.5421L8.66955 0.5415C8.7888 0.407346 8.77672 0.201922 8.64256 0.082674C8.50841 -0.0365744 8.30299 -0.0244913 8.18374 0.109663L7.34641 1.05166Z" fill="white"/>
</g>
<defs>
<clipPath id="clip0_2033_2786">
<rect width="12.7214" height="12.8534" fill="white" transform="matrix(0 -1 1 0 0.100098 12.7217)"/>
</clipPath>
</defs>
</svg>
