<svg width="13" height="12" viewBox="0 0 13 12" fill="none" xmlns="http://www.w3.org/2000/svg">
<g clip-path="url(#clip0_2101_1871)">
<path d="M7.64162 11.9066C7.86133 11.9066 8.05054 11.8294 8.20925 11.675C8.36792 11.5206 8.50423 11.3142 8.61819 11.0556L12.6159 1.84114C12.6689 1.71548 12.7106 1.59879 12.7411 1.49108C12.7716 1.38337 12.7869 1.28285 12.7869 1.1895C12.7869 1.01357 12.7299 0.875347 12.6159 0.774818C12.502 0.674288 12.3454 0.624023 12.146 0.624023C12.0443 0.624023 11.9314 0.637487 11.8073 0.664413C11.6832 0.691343 11.5499 0.728145 11.4075 0.774818L0.909425 4.32383C0.653077 4.41 0.437419 4.52309 0.262451 4.66312C0.0874837 4.80314 0 4.97009 0 5.16396C0 5.41171 0.0956217 5.59032 0.286865 5.69981C0.478109 5.80933 0.720214 5.90358 1.01318 5.98255L5.41992 7.12426L6.70169 10.9641C6.79119 11.2334 6.899 11.4577 7.02513 11.6373C7.15129 11.8168 7.35679 11.9066 7.64162 11.9066ZM5.69458 6.30565L1.48316 5.16935C1.43433 5.15858 1.40076 5.14601 1.38244 5.13165C1.36414 5.11729 1.35498 5.10113 1.35498 5.08318C1.35498 5.06523 1.36312 5.04818 1.37939 5.03202C1.39567 5.01586 1.42619 5.0006 1.47095 4.98624L9.72287 2.22889C9.96704 2.14631 10.2061 2.05566 10.4401 1.95692C10.674 1.85819 10.9049 1.76215 11.1328 1.6688C10.9294 1.81241 10.7137 1.9668 10.4858 2.13195C10.258 2.29711 10.0606 2.45329 9.89381 2.60049L5.69458 6.30565ZM7.73925 10.7218C7.71483 10.7218 7.6955 10.7119 7.68125 10.6921C7.66704 10.6724 7.65179 10.641 7.6355 10.5979L6.34763 6.88194L10.5469 3.17673C10.7137 3.02953 10.8917 2.8536 11.0809 2.64896C11.2701 2.44431 11.4461 2.25043 11.6089 2.06733C11.5031 2.27197 11.3932 2.47842 11.2793 2.68666C11.1654 2.89489 11.0616 3.10851 10.968 3.32753L7.843 10.6087C7.82675 10.6482 7.81048 10.6769 7.79419 10.6948C7.7779 10.7128 7.75958 10.7218 7.73925 10.7218Z" fill="white"/>
</g>
<defs>
<clipPath id="clip0_2101_1871">
<rect width="12.7869" height="11.9072" fill="white"/>
</clipPath>
</defs>
</svg>
