<svg width="78" height="33" viewBox="0 0 78 33" fill="none" xmlns="http://www.w3.org/2000/svg">
<g clip-path="url(#clip0_2107_538)">
<path d="M25.7049 23.7598C27.2709 22.8238 28.3419 22.2028 28.9179 21.8968C28.2699 21.5368 27.5769 21.2398 26.8389 21.0058C26.2269 22.0138 25.8489 22.9318 25.7049 23.7598ZM31.7529 25.8388C31.7529 24.5248 31.0509 23.3638 29.6469 22.3558C27.6489 23.6338 26.3349 24.4618 25.7049 24.8398C25.9569 26.5138 27.0639 27.3508 29.0259 27.3508C29.7279 27.3508 30.5739 27.2158 31.5639 26.9458C31.6899 26.5138 31.7529 26.1448 31.7529 25.8388ZM11.8809 25.3258C11.8809 25.7758 12.0249 26.1538 12.3129 26.4598C14.7609 25.2538 17.8119 23.1928 21.4659 20.2768C18.7659 20.3128 16.4889 20.8798 14.6349 21.9778C12.7989 23.0578 11.8809 24.1738 11.8809 25.3258ZM22.5999 19.9528C23.8959 19.9708 25.1109 20.0968 26.2449 20.3308C27.2889 18.2968 28.8909 16.3078 31.0509 14.3638C32.1669 13.3378 33.0849 12.5188 33.8049 11.9068C34.5429 11.2948 35.5869 10.4758 36.9369 9.44981C38.3049 8.42381 39.1239 7.80281 39.3939 7.58681C39.4119 7.56881 39.4119 7.55981 39.3939 7.55981H39.3129C39.2589 7.55981 39.1509 7.58681 38.9889 7.64081C38.0529 7.98281 36.9639 8.55881 35.7219 9.36881C34.4799 10.1608 33.5079 10.8358 32.8059 11.3938C32.1039 11.9338 31.0869 12.7708 29.7549 13.9048C28.4409 15.0208 27.7659 15.5878 27.7299 15.6058L22.5999 19.9528ZM32.4549 25.4878C32.4549 25.9198 32.3919 26.3248 32.2659 26.7028C33.6879 26.1808 34.9209 25.4788 35.9649 24.5968C37.0269 23.7148 37.5579 22.8778 37.5579 22.0858C37.5579 20.9518 36.5589 20.3848 34.5609 20.3848C33.4989 20.3848 32.0949 20.8978 30.3489 21.9238C31.7529 22.8778 32.4549 24.0658 32.4549 25.4878ZM22.1949 20.2768C18.5589 23.3008 15.3819 25.4608 12.6639 26.7568C13.4019 27.2608 14.5089 27.5128 15.9849 27.5128C17.4609 27.5128 18.8919 27.2248 20.2779 26.6488C21.6819 26.0548 23.3109 25.1998 25.1649 24.0838C25.2189 23.0218 25.4979 21.9238 26.0019 20.7898C24.9039 20.5018 23.6349 20.3308 22.1949 20.2768ZM17.6589 12.9328C17.6589 11.8168 18.0639 10.6288 18.8739 9.36881C19.7019 8.10881 20.8269 7.02881 22.2489 6.12881C23.6709 5.22881 25.1469 4.77881 26.6769 4.77881C27.6849 4.77881 28.4409 4.95881 28.9449 5.31881C29.4669 5.66081 29.7279 6.13781 29.7279 6.74981C29.7279 7.36181 29.4309 8.05481 28.8369 8.82881C28.2609 9.58481 27.4779 10.3048 26.4879 10.9888C25.4979 11.6728 24.2469 12.2488 22.7349 12.7168C21.2409 13.1668 19.6839 13.3918 18.0639 13.3918H17.6859L17.6589 12.9328ZM22.0599 0.674805C19.0899 1.17881 16.6419 2.33081 14.7159 4.13081C12.8079 5.93081 11.8539 7.73981 11.8539 9.55781C11.8539 10.6918 12.2769 11.6368 13.1229 12.3928C13.9869 13.1488 15.2559 13.5898 16.9299 13.7158C17.4339 15.4618 18.9819 16.3348 21.5739 16.3348C22.7439 16.3348 24.0489 16.0288 25.4889 15.4168C26.9289 14.8048 28.0629 14.2198 28.8909 13.6618C29.7189 13.0858 30.4029 12.5638 30.9429 12.0958L30.7809 11.8798C29.0889 13.2838 27.4419 14.3278 25.8399 15.0118C24.2379 15.6958 22.8609 16.0378 21.7089 16.0378C19.4589 16.0378 18.1359 15.2728 17.7399 13.7428H17.9019C19.6839 13.7428 21.3669 13.4998 22.9509 13.0138C24.5529 12.5278 25.8669 11.9158 26.8929 11.1778C27.9189 10.4398 28.7289 9.66581 29.3229 8.85581C29.9169 8.02781 30.2139 7.26281 30.2139 6.56081C30.2139 5.85881 29.9349 5.30981 29.3769 4.91381C28.8369 4.49981 27.9279 4.29281 26.6499 4.29281C25.3899 4.29281 24.1119 4.56281 22.8159 5.10281C21.5199 5.62481 20.4399 6.29981 19.5759 7.12781C18.7119 7.93781 18.0279 8.8288 17.5239 9.80081C17.0199 10.7548 16.7679 11.6818 16.7679 12.5818C16.7679 12.7618 16.7859 13.0138 16.8219 13.3378C15.3099 13.1758 14.1759 12.7528 13.4199 12.0688C12.6639 11.3668 12.2859 10.4938 12.2859 9.44981C12.2859 7.68581 13.2219 5.93981 15.0939 4.21181C16.9839 2.46581 19.3329 1.39481 22.1409 0.998804L22.0599 0.674805ZM6.66989 23.5708C7.85789 23.4448 8.85689 23.0308 9.66689 22.3288C10.4949 21.6088 10.9089 20.8798 10.9089 20.1418C10.9089 19.6558 10.6929 19.2598 10.2609 18.9538C9.84689 18.6298 9.20789 18.4678 8.34389 18.4678C6.32789 18.4678 4.64489 19.1158 3.29489 20.4118C1.96289 21.7078 1.29689 23.1028 1.29689 24.5968C1.29689 25.6408 1.67489 26.4958 2.43089 27.1618C3.18689 27.8278 4.41089 28.1608 6.10289 28.1608C7.81289 28.1608 9.78389 27.6388 12.0159 26.5948C11.6379 26.1808 11.4489 25.7038 11.4489 25.1638C11.4489 23.8858 12.3759 22.7068 14.2299 21.6268C16.1019 20.5288 18.6489 19.9708 21.8709 19.9528C22.9689 19.0708 25.1379 17.2708 28.3779 14.5528C34.1019 9.69281 38.3409 6.98381 41.0949 6.42581C41.3109 6.38981 41.4369 6.37181 41.4729 6.37181C41.6709 6.37181 41.7699 6.46181 41.7699 6.64181C41.7699 6.73181 41.7249 6.81281 41.6349 6.88481C39.3849 8.16281 36.7749 10.1788 33.8049 12.9328C30.8349 15.6868 28.6119 18.2158 27.1359 20.5198C28.1439 20.8078 28.9899 21.1318 29.6739 21.4918C31.6179 20.5198 33.3639 20.0338 34.9119 20.0338C35.9379 20.0338 36.7029 20.2138 37.2069 20.5738C37.7109 20.9158 37.9629 21.3838 37.9629 21.9778C37.9629 22.9318 37.3869 23.8948 36.2349 24.8668C35.0829 25.8208 33.7149 26.5588 32.1309 27.0808C31.6809 28.1968 30.8169 29.2228 29.5389 30.1588C28.2789 31.0948 26.6949 31.8148 24.7869 32.3188V32.0488C28.4049 30.7888 30.6189 29.1958 31.4289 27.2698C30.4389 27.5398 29.5749 27.6748 28.8369 27.6748C26.6769 27.6748 25.4619 26.8288 25.1919 25.1368C22.0599 26.9188 18.9279 27.8098 15.7959 27.8098C14.2479 27.8098 13.0959 27.5038 12.3399 26.8918C9.83789 28.0078 7.48889 28.5658 5.29289 28.5658C3.69089 28.5658 2.47589 28.2058 1.64789 27.4858C0.819884 26.7658 0.405884 25.8478 0.405884 24.7318C0.405884 23.1118 1.16189 21.6088 2.67389 20.2228C4.18589 18.8368 6.12089 18.1438 8.47889 18.1438C9.52289 18.1438 10.2969 18.3058 10.8009 18.6298C11.3229 18.9538 11.5839 19.3858 11.5839 19.9258C11.5839 20.7538 11.0799 21.5908 10.0719 22.4368C9.08189 23.2648 7.94789 23.7418 6.66989 23.8678V23.5708ZM42.6877 21.5728C42.7597 21.4648 42.8407 21.4108 42.9307 21.4108C43.0387 21.4108 43.0927 21.4648 43.0927 21.5728C43.0927 21.6808 43.0387 21.7888 42.9307 21.8968C42.8227 22.0048 42.7417 22.3378 42.6877 22.8958C42.6517 23.4358 42.5167 24.1018 42.2827 24.8938C42.0487 25.6678 41.6437 26.3698 41.0677 26.9998C41.0677 27.0358 41.1037 27.0538 41.1757 27.0538C41.3017 27.0538 41.7607 26.8378 42.5527 26.4058L42.9307 26.2168C43.6147 25.8388 44.3437 25.3798 45.1177 24.8398L45.1717 25.2448C42.3637 27.0628 40.2127 27.9718 38.7187 27.9718C38.1247 27.9718 37.6927 27.8458 37.4227 27.5938C37.1347 27.3418 36.9907 27.0628 36.9907 26.7568C36.9907 26.4508 37.0627 26.2078 37.2067 26.0278C37.3507 25.8298 37.5307 25.7308 37.7467 25.7308C38.0167 25.7308 38.1517 25.8748 38.1517 26.1628C38.1517 26.3428 38.0077 26.5048 37.7197 26.6488C37.6297 26.7028 37.5847 26.7928 37.5847 26.9188C37.5847 27.0448 37.6927 27.1888 37.9087 27.3508C38.1067 27.5308 38.3227 27.6208 38.5567 27.6208C39.3487 27.6208 40.0237 27.1258 40.5817 26.1358C41.1577 25.1278 41.5267 24.1288 41.6887 23.1388V23.0578C39.9427 24.2458 38.7637 25.0198 38.1517 25.3798L38.0707 25.0018C41.0047 23.1118 42.5437 21.9688 42.6877 21.5728ZM47.6814 23.5708C46.8174 24.1828 45.9084 24.7858 44.9544 25.3798L44.8734 25.0018L47.4384 23.2198C48.3204 22.5898 48.9954 22.2748 49.4634 22.2748C49.9314 22.2748 50.1654 22.4728 50.1654 22.8688C50.1654 23.4628 49.7514 24.1738 48.9234 25.0018L49.3824 24.7318C51.8484 23.1298 53.3874 22.3288 53.9994 22.3288C54.6114 22.3288 54.9174 22.4908 54.9174 22.8148C54.9174 23.1748 54.6294 23.7418 54.0534 24.5158C56.1054 23.0938 57.7524 22.3828 58.9944 22.3828C59.4804 22.3828 59.7234 22.5898 59.7234 23.0038C59.7234 23.4178 59.5434 23.8498 59.1834 24.2998C58.8234 24.7318 58.4274 25.1098 57.9954 25.4338C56.8434 26.2618 56.2674 26.7838 56.2674 26.9998C56.2674 27.1258 56.3664 27.1888 56.5644 27.1888C56.7804 27.1888 57.1314 27.0808 57.6174 26.8648C58.1034 26.6488 58.5354 26.4328 58.9134 26.2168C59.2914 25.9828 59.7414 25.7038 60.2634 25.3798C60.8034 25.0378 61.0914 24.8578 61.1274 24.8398L61.1814 25.2448C58.7514 26.8648 57.0504 27.6748 56.0784 27.6748C55.6104 27.6748 55.3764 27.4498 55.3764 26.9998C55.3764 26.6938 55.5654 26.3338 55.9434 25.9198C56.3394 25.4878 56.7624 25.0918 57.2124 24.7318C58.4544 23.7958 59.0754 23.1748 59.0754 22.8688C59.0754 22.7788 58.9764 22.7338 58.7784 22.7338C58.1124 22.7338 57.1224 23.0938 55.8084 23.8138C54.4944 24.5338 53.0364 25.7038 51.4344 27.3238C51.3264 27.4318 51.0924 27.4858 50.7324 27.4858C50.3904 27.4858 50.2194 27.4048 50.2194 27.2428C50.2194 27.1708 50.5344 26.8378 51.1644 26.2438C53.0904 24.4258 54.0534 23.3188 54.0534 22.9228C54.0534 22.8148 53.9904 22.7608 53.8644 22.7608C53.4504 22.7608 52.5414 23.2198 51.1374 24.1378C49.7514 25.0378 48.3294 26.0908 46.8714 27.2968C46.6554 27.4228 46.4844 27.4858 46.3584 27.4858C45.8004 27.4858 45.5214 27.4228 45.5214 27.2968C45.5214 27.2248 45.7644 26.9728 46.2504 26.5408C46.7544 26.1088 47.4204 25.4608 48.2484 24.5968C49.0944 23.7148 49.5174 23.1028 49.5174 22.7608C49.5174 22.6888 49.4724 22.6528 49.3824 22.6528C49.0584 22.6528 48.4914 22.9588 47.6814 23.5708ZM66.6293 19.8718C66.6293 20.1238 66.4853 20.3668 66.1973 20.6008C65.9093 20.8348 65.6393 20.9518 65.3873 20.9518C65.1533 20.9518 65.0363 20.8528 65.0363 20.6548C65.0363 20.4568 65.1803 20.2318 65.4683 19.9798C65.7563 19.7098 66.0173 19.5748 66.2513 19.5748C66.5033 19.5748 66.6293 19.6738 66.6293 19.8718ZM64.3343 22.7878C61.9043 24.9838 60.6893 26.3608 60.6893 26.9188C60.6893 27.0988 60.8153 27.1888 61.0673 27.1888C61.3013 27.1888 61.6613 27.0808 62.1473 26.8648C62.6333 26.6488 63.0653 26.4328 63.4433 26.2168C63.8213 25.9828 64.2713 25.7038 64.7933 25.3798C65.3333 25.0378 65.6213 24.8578 65.6573 24.8398L65.7113 25.2448C64.8833 25.7848 63.9383 26.3248 62.8763 26.8648C61.8143 27.4048 61.0133 27.6748 60.4733 27.6748C59.9153 27.6748 59.6363 27.4498 59.6363 26.9998C59.6363 26.6218 59.9603 26.0548 60.6083 25.2988C61.2563 24.5248 61.9043 23.8498 62.5523 23.2738L63.5243 22.4098C63.6143 22.3378 63.7853 22.3108 64.0373 22.3288C64.2893 22.3468 64.4153 22.4368 64.4153 22.5988C64.4153 22.6708 64.3883 22.7338 64.3343 22.7878ZM77.9415 13.8778C77.9415 13.9498 77.8425 14.0848 77.6445 14.2828C77.4465 14.4628 77.0865 14.7958 76.5645 15.2818C76.0605 15.7498 75.4485 16.3168 74.7285 16.9828C74.0085 17.6488 73.4055 18.2068 72.9195 18.6568H77.4285C77.4825 18.6568 77.5095 18.6928 77.5095 18.7648C77.5095 18.9808 77.4285 19.0888 77.2665 19.0888H72.4605C67.8165 23.4808 65.4945 26.0818 65.4945 26.8918C65.4945 27.0898 65.6205 27.1888 65.8725 27.1888C66.3045 27.1888 67.5645 26.5318 69.6525 25.2178C70.0125 25.0018 70.2285 24.8758 70.3005 24.8398L70.3545 25.2448C67.9065 26.8648 66.1695 27.6748 65.1435 27.6748C64.6035 27.6748 64.3335 27.4768 64.3335 27.0808C64.3335 26.5228 64.7565 25.7668 65.6025 24.8128C66.7185 23.4808 68.5815 21.5818 71.1915 19.1158H66.5475C66.2955 19.1158 66.1695 19.0438 66.1695 18.8998C66.1695 18.7378 66.2415 18.6568 66.3855 18.6568H71.6505L77.0505 13.6888C77.1405 13.6168 77.3115 13.5898 77.5635 13.6078C77.8155 13.6258 77.9415 13.7158 77.9415 13.8778Z" fill="white"/>
</g>
<defs>
<clipPath id="clip0_2107_538">
<rect width="78" height="33" fill="white"/>
</clipPath>
</defs>
</svg>
