<svg width="44" height="44" viewBox="0 0 44 44" fill="none" xmlns="http://www.w3.org/2000/svg">
<path fill-rule="evenodd" clip-rule="evenodd" d="M22.5552 6.10352e-05C23.5573 6.10352e-05 24.3696 0.812412 24.3696 1.8145V3.99182C24.3696 4.99391 23.5573 5.80626 22.5552 5.80626C21.5531 5.80626 20.7407 4.99391 20.7407 3.99182V1.8145C20.7407 0.812412 21.5531 6.10352e-05 22.5552 6.10352e-05ZM22.1923 31.2084C27.4031 31.2084 31.6274 26.9841 31.6274 21.7733C31.6274 16.5624 27.4031 12.3382 22.1923 12.3382C16.9815 12.3382 12.7572 16.5624 12.7572 21.7733C12.7572 26.9841 16.9815 31.2084 22.1923 31.2084ZM22.1923 34.8372C29.4073 34.8372 35.2562 28.9883 35.2562 21.7733C35.2562 14.5583 29.4073 8.70935 22.1923 8.70935C14.9773 8.70935 9.12836 14.5583 9.12836 21.7733C9.12836 28.9883 14.9773 34.8372 22.1923 34.8372ZM24.3696 39.5548C24.3696 38.5527 23.5573 37.7403 22.5552 37.7403C21.5531 37.7403 20.7407 38.5527 20.7407 39.5548V41.7321C20.7407 42.7342 21.5531 43.5465 22.5552 43.5465C23.5573 43.5465 24.3696 42.7342 24.3696 41.7321V39.5548ZM37.4197 7.6603C38.1283 8.36888 38.1283 9.51772 37.4197 10.2263L35.8801 11.7659C35.1715 12.4745 34.0227 12.4745 33.3141 11.7659C32.6055 11.0573 32.6055 9.90848 33.3141 9.1999L34.8537 7.6603C35.5623 6.95172 36.7111 6.95172 37.4197 7.6603ZM11.6138 35.7831C12.3224 35.0746 12.3224 33.9257 11.6138 33.2171C10.9052 32.5086 9.75636 32.5085 9.04778 33.2171L7.50818 34.7567C6.7996 35.4653 6.7996 36.6142 7.50818 37.3227C8.21676 38.0313 9.3656 38.0313 10.0742 37.3227L11.6138 35.7831ZM43.9655 23.5877C43.9655 24.5898 43.1532 25.4022 42.1511 25.4022H39.9738C38.9717 25.4022 38.1593 24.5898 38.1593 23.5877C38.1593 22.5856 38.9717 21.7733 39.9738 21.7733H42.1511C43.1532 21.7733 43.9655 22.5856 43.9655 23.5877ZM4.41083 25.4022C5.41291 25.4022 6.22526 24.5898 6.22526 23.5877C6.22526 22.5856 5.41291 21.7733 4.41083 21.7733H2.2335C1.23142 21.7733 0.419067 22.5856 0.419067 23.5877C0.419067 24.5898 1.23142 25.4022 2.2335 25.4022H4.41083ZM36.6272 37.3227C35.9186 38.0313 34.7698 38.0313 34.0612 37.3227L32.5216 35.7831C31.813 35.0746 31.813 33.9257 32.5216 33.2171C33.2302 32.5086 34.379 32.5086 35.0876 33.2171L36.6272 34.7567C37.3358 35.4653 37.3358 36.6142 36.6272 37.3227ZM7.93333 11.7658C8.64191 12.4744 9.79075 12.4744 10.4993 11.7658C11.2079 11.0573 11.2079 9.90842 10.4993 9.19984L8.95973 7.66024C8.25115 6.95165 7.10231 6.95165 6.39373 7.66024C5.68515 8.36882 5.68515 9.51765 6.39373 10.2262L7.93333 11.7658Z" fill="#FFBB00"/>
</svg>
