<svg width="47" height="46" viewBox="0 0 47 46" fill="none" xmlns="http://www.w3.org/2000/svg">
<path fill-rule="evenodd" clip-rule="evenodd" d="M35.6548 22.031C35.0545 22.3311 34.355 22.6064 33.5992 22.8138C31.3091 23.4422 28.5031 23.4468 26.381 21.6278C24.1929 19.7522 24.4281 16.9074 25.208 14.4082C25.4341 13.6838 25.7059 12.9883 25.9778 12.354C25.1908 12.354 24.4257 12.448 23.6932 12.6252C19.4513 13.6519 16.3008 17.4735 16.3008 22.031C16.3008 27.3755 20.6333 31.708 25.9778 31.708C30.5222 31.708 34.335 28.5755 35.3746 24.3519C35.5577 23.6084 35.6548 22.831 35.6548 22.031ZM33.0383 25.0091C31.8763 27.7608 29.1525 29.6919 25.9778 29.6919C21.7467 29.6919 18.3168 26.262 18.3168 22.031C18.3168 18.871 20.2301 16.1578 22.9614 14.9867C22.808 15.6471 22.6968 16.3309 22.655 17.0201C22.5289 19.1003 23.0366 21.4165 25.069 23.1585C26.9554 24.7754 29.2038 25.2667 31.2301 25.2053C31.8466 25.1867 32.4529 25.1171 33.0383 25.0091Z" fill="#CACACA"/>
<circle cx="44.794" cy="17.1929" r="0.537611" fill="white"/>
<circle cx="45.5108" cy="32.9629" r="0.537611" fill="white"/>
<circle cx="34.7587" cy="12.1752" r="0.376327" fill="white"/>
<circle cx="31.8916" cy="1.42286" r="0.537611" fill="white"/>
<circle cx="13.2544" cy="4.29005" r="0.537611" fill="white"/>
<circle cx="10.3867" cy="17.1929" r="0.537611" fill="white"/>
<circle cx="1.06837" cy="21.4937" r="0.537611" fill="white"/>
<circle cx="36.909" cy="37.2635" r="0.376327" fill="white"/>
<circle cx="40.9412" cy="25.5256" r="0.268805" fill="white"/>
<circle cx="7.51978" cy="27.9451" r="0.268805" fill="white"/>
<circle cx="23.2896" cy="39.4141" r="0.537611" fill="white"/>
<circle cx="10.3867" cy="34.3965" r="0.537611" fill="white"/>
<circle cx="15.4045" cy="45.1487" r="0.268805" fill="white"/>
<circle cx="29.741" cy="44.4319" r="0.268805" fill="white"/>
</svg>
