<svg width="20" height="20" viewBox="0 0 20 20" fill="none" xmlns="http://www.w3.org/2000/svg">
<path d="M17.2686 13.1063L17.4491 12.6791L16.993 12.7632C16.4189 12.8691 15.8253 12.9372 15.2226 12.9554C13.2411 13.0155 11.0591 12.535 9.23166 10.9687C7.2767 9.29298 6.78157 7.06432 6.90454 5.03526C6.94531 4.36259 7.05401 3.69276 7.20489 3.04331L7.31662 2.56241L6.86286 2.75696C4.04293 3.96605 2.06682 6.76747 2.06682 10.031C2.06682 14.4001 5.60868 17.9419 9.97777 17.9419C13.2565 17.9419 16.0689 15.9473 17.2686 13.1063ZM17.6654 11.0549C18.2869 10.8844 18.8714 10.6688 19.3964 10.4308C19.3698 11.07 19.2795 11.6925 19.1319 12.2922C18.1191 16.4066 14.4045 19.458 9.97777 19.458C4.77139 19.458 0.550781 15.2374 0.550781 10.031C0.550781 5.59161 3.61968 1.86839 7.75202 0.868229C8.34719 0.724178 8.96457 0.636582 9.59825 0.611503C9.37512 1.15259 9.1569 1.73271 8.96933 2.33376C8.18493 4.84736 7.90601 7.83565 10.2183 9.8176C12.4301 11.7134 15.3363 11.694 17.6654 11.0549Z" fill="#CACACA" stroke="#1D1D1D" stroke-width="0.5"/>
</svg>
