<svg width="123" height="143" viewBox="0 0 123 143" fill="none" xmlns="http://www.w3.org/2000/svg">
<path d="M70.5505 101.166C68.4643 97.9032 67.4779 93.7516 67.6331 89.7156C67.7003 88.4641 67.9565 87.2995 68.4792 86.2387C67.7235 85.8915 67.066 85.385 66.5509 84.6837C66.1704 84.1929 65.8779 83.6311 65.8727 82.9968C65.8546 82.1335 66.4136 81.4426 67.0425 81.174C67.7155 80.8698 68.5023 80.9526 69.2011 81.1064C68.699 80.6341 68.6472 79.7182 68.9189 79.0997C69.2683 78.4982 69.8636 78.177 70.4718 78.0847C71.1137 78.0451 71.7349 78.1818 72.3457 78.4067C72.3068 77.7198 72.3896 77.0145 72.6614 76.3959C72.9331 75.7774 73.4274 75.2982 74.002 75.1534C74.6102 75.0611 75.2884 75.3913 75.5265 76.0768C75.6067 75.0543 76.0751 74.1173 76.8128 73.6013C77.1647 73.317 77.584 73.1379 78.0499 73.2404C78.5598 73.3074 79.0283 73.7271 79.2768 74.3245C79.3777 74.4824 79.4347 74.6758 79.4916 74.8692C79.5952 75.3443 79.6211 75.8022 79.603 76.2957C80.8945 75.8112 82.3335 75.7661 83.7209 76.1619C87.3056 77.177 90.6808 79.6384 92.8343 83.0067C97.3097 90.0065 95.0532 98.3737 88.8934 103.349C85.3736 106.192 81.3411 107.295 77.6917 106.492C75.0077 105.946 72.4685 104.166 70.5505 101.166Z" fill="white"/>
<path d="M70.5505 101.166C68.4643 97.9032 67.4779 93.7516 67.6331 89.7156C67.7003 88.4641 67.9565 87.2995 68.4792 86.2387C67.7235 85.8915 67.066 85.385 66.5509 84.6837C66.1704 84.1929 65.8779 83.6311 65.8727 82.9968C65.8546 82.1335 66.4136 81.4426 67.0425 81.174C67.7155 80.8698 68.5023 80.9526 69.2011 81.1064C68.699 80.6341 68.6472 79.7182 68.9189 79.0997C69.2683 78.4982 69.8636 78.177 70.4718 78.0847C71.1137 78.0451 71.7349 78.1818 72.3457 78.4067C72.3068 77.7198 72.3896 77.0145 72.6614 76.3959C72.9331 75.7774 73.4274 75.2982 74.002 75.1534C74.6102 75.0611 75.2884 75.3913 75.5265 76.0768C75.6067 75.0543 76.0751 74.1173 76.8128 73.6013C77.1647 73.317 77.584 73.1379 78.0499 73.2404C78.5598 73.3074 79.0283 73.7271 79.2768 74.3245C79.1318 74.2021 79.0205 74.1326 78.8315 74.0458C78.4096 73.9077 77.9567 74.0342 77.6047 74.3185C77.2527 74.6028 77.0121 74.9568 76.805 75.3635C76.3806 76.265 76.1788 77.306 76.2979 78.3271C76.0494 77.7297 75.7129 77.2034 75.3324 76.7127C75.1201 76.4851 74.9079 76.2574 74.5973 76.1891C74.2091 76.1036 73.7794 76.3709 73.6164 76.742C73.3653 77.1842 73.2593 77.7488 73.3085 78.3475C73.324 78.8936 73.4949 79.4739 73.6321 80.0016C72.8504 79.1964 71.7737 78.8689 70.7565 79.0521C70.4692 79.1245 70.1819 79.197 69.9956 79.4273C69.7756 79.605 69.6229 79.888 69.6591 80.2577C69.6617 80.5749 69.83 80.838 69.9982 81.1012C70.2338 81.4696 70.547 81.8551 70.8705 82.1524C69.8714 81.8421 68.831 81.8844 67.9484 82.2781C67.7388 82.3676 67.5291 82.4571 67.4204 82.7045C67.3117 82.9519 67.3143 83.2691 67.4386 83.5678C67.5628 83.8665 67.7751 84.0941 67.9977 84.2335C68.7897 84.9505 69.7784 85.349 70.7309 85.3778C68.6709 89.3563 68.5935 94.7661 70.4779 99.0701C71.9896 102.478 74.6582 105.191 77.7693 106.509C75.0076 105.946 72.4685 104.166 70.5505 101.166Z" fill="white"/>
<path d="M53.6623 50.9591C53.7244 50.43 54.2084 50.0391 54.6329 50.4943C60.7 57.1661 65.9338 64.8303 70.0986 73.1185C70.3911 73.6803 70.0081 74.2291 69.6432 74.2845C69.4439 74.2858 69.2109 74.2346 69.0867 73.9359C64.9891 65.753 59.8667 58.1585 53.8668 51.592C53.6882 51.417 53.6416 51.1354 53.6623 50.9591Z" fill="white"/>
<path d="M53.6623 50.9591C59.9521 57.7703 65.4317 65.7148 69.6768 74.3372C69.4775 74.3386 69.2445 74.2873 69.1203 73.9886C65.0227 65.8057 59.9003 58.2112 53.9004 51.6447C53.6882 51.4171 53.6416 51.1354 53.6623 50.9591Z" fill="white"/>
<path d="M58.584 77.2321C58.3692 76.6874 58.4313 76.1584 58.5503 75.8228C58.7133 75.4516 58.91 75.1331 59.174 74.9199C59.35 74.7777 59.627 74.7935 59.7952 75.0566C59.9298 75.2671 59.8988 75.5317 59.8004 75.6909C59.7021 75.8502 59.6037 76.0094 59.539 76.2213C59.539 76.2213 59.495 76.2568 59.5287 76.3095C59.508 76.4858 59.5209 76.7148 59.5986 76.7319C59.5986 76.7319 59.7099 76.8016 59.8652 76.8358C60.0205 76.8699 60.2638 76.833 60.4734 76.7435C60.9263 76.6171 61.312 76.3854 61.7416 76.1182C62.1712 75.8509 62.6112 75.4955 63.0512 75.1401L65.6807 73.0959C66.5607 72.3851 67.3967 71.7099 68.2766 70.9991C69.9926 69.613 71.6749 68.1743 73.3235 66.683C74.1698 65.9196 74.9721 65.1917 75.5078 64.3599C75.6502 64.1651 75.7589 63.9177 75.7796 63.7414C75.8339 63.6177 75.8106 63.4768 75.821 63.3887C75.7537 63.2834 75.6864 63.1782 75.5311 63.144L75.4534 63.1269C75.3318 63.1453 75.1765 63.1112 75.0445 63.2178C74.8349 63.3073 74.5683 63.2034 74.4777 62.9574C74.3871 62.7113 74.4518 62.4994 74.6278 62.3572C74.8917 62.144 75.267 62.0005 75.6216 62.0333C76.0202 62.0306 76.5094 62.2739 76.7346 62.7305C77.0038 63.1516 77.097 63.7148 77.0013 64.1911C76.9159 64.5794 76.7968 64.915 76.6338 65.2861C76.0127 66.5061 75.156 67.3577 74.3873 68.1382C72.7956 69.8229 71.103 71.3498 69.3431 72.7714C68.4631 73.4822 67.5831 74.193 66.6695 74.8512C65.7559 75.5093 64.8423 76.1675 63.895 76.773C62.9478 77.3786 61.9902 78.0723 60.6857 78.3278C60.3648 78.3477 60.0438 78.3675 59.6556 78.282C59.5003 78.2478 59.2673 78.1966 59.0887 78.0216C58.9205 77.7584 58.6746 77.4782 58.584 77.2321Z" fill="white"/>
<path d="M59.4902 76.9795C59.3556 76.769 59.353 76.4519 59.4617 76.2044L59.5057 76.1689C59.5057 76.1689 59.4617 76.2044 59.4953 76.2571C59.4746 76.4334 59.4876 76.6624 59.5652 76.6795C59.5652 76.6795 59.6765 76.7492 59.8318 76.7834C59.9871 76.8175 60.2304 76.7806 60.44 76.6911C60.893 76.5647 61.2786 76.333 61.7082 76.0658C62.1379 75.7985 62.5778 75.4431 63.0178 75.0877L65.6474 73.0435C66.5273 72.3327 67.3633 71.6575 68.2433 70.9467C69.9592 69.5606 71.6415 68.1219 73.2901 66.6306C74.1364 65.8672 74.9388 65.1393 75.4745 64.3075C75.6168 64.1127 75.7255 63.8653 75.7462 63.689C75.8006 63.5653 75.7773 63.4245 75.7876 63.3363C75.7203 63.231 75.653 63.1258 75.4977 63.0916L75.4201 63.0745C75.785 63.0192 76.0879 63.4928 76.0801 63.8981C76.0724 64.3034 75.8317 64.6575 75.635 64.976C74.4082 66.6054 72.9356 67.9545 71.4397 69.1629C68.8774 71.3124 66.2039 73.3921 63.5407 75.3837C62.5831 76.0774 61.5814 76.8067 60.4659 77.1491C60.1346 77.257 59.6921 77.2953 59.4902 76.9795Z" fill="white"/>
<path d="M56.6397 71.0609C56.4585 70.5688 56.5102 70.1279 56.6293 69.7923C56.7483 69.4567 56.9787 69.1909 57.1987 69.0132C57.3746 68.871 57.6516 68.8867 57.8198 69.1499C57.9544 69.3604 57.9674 69.5894 57.825 69.7842L57.781 69.8197C57.6827 69.979 57.5844 70.1382 57.5637 70.3145C57.5533 70.4027 57.5533 70.4027 57.543 70.4909C57.5766 70.5435 57.5663 70.6317 57.6103 70.5961C57.5766 70.5435 57.6103 70.5961 57.7655 70.6303C57.8872 70.6119 58.0865 70.6105 58.2521 70.5565C58.5834 70.4486 58.9251 70.2524 59.3107 70.0207C59.6627 69.7364 60.0483 69.5047 60.4003 69.2204L62.6002 67.4434C63.3482 66.8392 64.0522 66.2706 64.8001 65.6664C66.2521 64.4936 67.6704 63.2681 69.0887 62.0427C69.803 61.3859 70.5069 60.8173 70.9443 60.1447C71.0427 59.9855 71.141 59.8262 71.1617 59.6499C71.2161 59.5262 71.1824 59.4735 71.2264 59.438C71.1928 59.3854 71.1591 59.3327 71.0478 59.263C71.0142 59.2104 70.9702 59.2459 70.8925 59.2288C70.8149 59.2117 70.6932 59.2302 70.6052 59.3013C70.3956 59.3908 70.129 59.2869 70.0384 59.0408C69.9478 58.7948 70.0125 58.5829 70.1885 58.4407C70.4085 58.2631 70.7061 58.1024 71.0607 58.1353C71.4153 58.1681 71.8708 58.3588 72.1064 58.7272C72.3756 59.1482 72.4351 59.6588 72.3497 60.047C72.3083 60.3997 72.1556 60.6827 72.0366 61.0183C71.5138 62.079 70.7555 62.7714 70.1525 63.4979C68.7911 64.9168 67.4065 66.1948 65.9106 67.4032C65.1626 68.0074 64.4146 68.6115 63.633 69.1631C62.8514 69.7146 62.0698 70.2662 61.3321 70.7822C60.5169 71.2811 59.6913 71.8682 58.5964 72.0342C58.3531 72.0711 58.0322 72.091 57.688 71.97C57.5327 71.9358 57.3437 71.849 57.1548 71.7622C56.9425 71.5346 56.7303 71.3069 56.6397 71.0609Z" fill="white"/>
<path d="M57.5769 70.5432C57.5432 70.4906 57.5536 70.4024 57.5536 70.4024C57.5872 70.4551 57.5769 70.5432 57.6209 70.5077C57.5872 70.4551 57.6209 70.5077 57.7762 70.5419C57.8978 70.5234 58.0971 70.5221 58.2628 70.4681C58.5941 70.3601 58.9357 70.1639 59.3213 69.9323C59.6733 69.6479 60.0589 69.4162 60.4109 69.1319L62.6109 67.3549C63.3588 66.7508 64.0628 66.1821 64.8108 65.5779C66.2627 64.4051 67.681 63.1797 69.0993 61.9542C69.8136 61.2974 70.5176 60.7288 70.955 60.0563C71.0533 59.897 71.1517 59.7378 71.1724 59.5614C71.2267 59.4377 71.1931 59.3851 71.2371 59.3495C71.2034 59.2969 71.1697 59.2443 71.0585 59.1746C71.0248 59.1219 70.9808 59.1575 70.9032 59.1404C71.0688 59.0864 71.2241 59.1206 71.369 59.2429C71.5813 59.4705 71.5399 59.8232 71.4649 60.1233C71.3562 60.3707 71.1698 60.601 70.9498 60.7787C67.2048 64.522 63.2476 68.0378 58.796 70.6759C58.5863 70.7654 58.3663 70.9431 58.167 70.9445C57.9677 70.9458 57.6675 70.7893 57.5769 70.5432Z" fill="white"/>
<path d="M55.1925 64.7273C55.045 64.2878 55.0864 63.9352 55.2054 63.5996C55.3141 63.3521 55.5004 63.1218 55.6764 62.9797C55.8524 62.8375 56.1294 62.8532 56.2976 63.1164C56.3986 63.2743 56.4115 63.5032 56.3132 63.6625L56.2692 63.698C56.2148 63.8217 56.1605 63.9455 56.1501 64.0336C56.1501 64.0336 56.1501 64.0336 56.1941 63.9981C56.2718 64.0152 56.3934 63.9967 56.4814 63.9256C56.9784 63.7637 57.5063 63.3372 58.0343 62.9107L61.3782 60.2097C62.4781 59.3212 63.5781 58.4327 64.6444 57.4916C65.1827 56.9769 65.7107 56.5504 66.0834 56.0898C66.1377 55.9661 66.2257 55.895 66.2801 55.7713C66.3241 55.7357 66.3241 55.7357 66.3241 55.7357C66.3241 55.7357 66.3681 55.7002 66.2904 55.6831C66.2568 55.6305 66.2128 55.666 66.1351 55.6489C66.1351 55.6489 66.0575 55.6318 66.0135 55.6674L65.9695 55.7029C65.7599 55.7925 65.5036 55.6004 65.413 55.3543C65.3561 55.1609 65.3871 54.8964 65.5631 54.7542C65.7391 54.6121 65.9927 54.487 66.3137 54.4672C66.5906 54.4829 66.9685 54.6565 67.2041 55.025C67.4396 55.3934 67.5095 55.8158 67.4345 56.1158C67.3594 56.4159 67.2947 56.6277 67.186 56.8752C66.7279 57.724 66.2233 58.2913 65.7186 58.8586C64.7092 59.9932 63.5989 60.9698 62.455 61.8939C61.883 62.3559 61.311 62.8179 60.7054 63.2273C60.0998 63.6367 59.4941 64.046 58.8885 64.4554C58.2829 64.8648 57.6332 65.3097 56.7041 65.4218C56.4608 65.4587 56.2615 65.4601 55.9509 65.3917C55.7956 65.3575 55.6843 65.2878 55.4954 65.201C55.4954 65.201 55.2831 64.9734 55.1925 64.7273Z" fill="white"/>
<path d="M56.1838 64.0866C56.3055 64.0681 56.4271 64.0497 56.5487 64.0312C57.0457 63.8693 57.5737 63.4428 58.1016 63.0163L61.4455 60.3153C62.5455 59.4268 63.6454 58.5383 64.7117 57.5972C65.2501 57.0825 65.778 56.656 66.1507 56.1954C66.2051 56.0717 66.2931 56.0006 66.3474 55.8769C66.3914 55.8413 66.3914 55.8413 66.3914 55.8413C66.3914 55.8413 66.4354 55.8058 66.3578 55.7887C66.3241 55.7361 66.2801 55.7716 66.2025 55.7545C66.2905 55.6834 66.4458 55.7176 66.513 55.8229C66.658 55.9452 66.6709 56.1742 66.5726 56.3335C66.5183 56.4572 66.4199 56.6164 66.2879 56.723C63.3996 59.6148 60.2214 62.2618 56.7506 64.347C56.6187 64.4536 56.453 64.5076 56.3417 64.4379C56.2744 64.3326 56.1735 64.1747 56.1838 64.0866Z" fill="white"/>
<path d="M47.4044 56.094C47.8522 56.69 48.344 57.2505 48.9885 57.528C49.0661 57.5451 49.1774 57.6148 49.2551 57.6319C49.7883 57.8397 50.4301 57.8001 50.8701 57.4447C51.5741 56.8761 51.6646 55.7654 51.5455 54.7443C51.3824 53.7587 51.064 52.7389 51.1002 51.7519C51.2062 49.8306 52.9662 48.409 54.4 47.7297C55.9658 46.9438 57.9044 47.0539 59.4419 48.2063C60.3219 48.8522 61.2822 49.8324 62.2321 49.544C62.8507 49.3636 63.2207 48.5858 63.2699 47.8278C63.319 47.0698 63.0912 46.2961 62.8531 45.6105C61.8798 43.0447 60.2336 40.7829 58.2276 39.2108C57.9377 38.9661 57.6038 38.757 57.2699 38.5478C56.8584 38.3216 56.4365 38.1835 56.0043 38.1336C55.1734 38.0864 54.3245 38.5327 54.0994 39.4328C53.8096 40.5448 54.6171 41.8079 54.3273 42.92C54.1669 43.6082 53.6725 44.0874 53.1886 44.4783C52.2543 45.3128 51.2526 46.042 50.2174 46.7187C49.3141 47.2887 48.2556 47.8245 47.2332 47.3733C46.6327 47.0603 46.0736 46.3945 45.4214 46.5223C45.0124 46.6132 44.7278 47.0028 44.5984 47.4265C44.469 47.8503 44.4845 48.3964 44.5544 48.8188C44.7978 51.4954 45.8488 54.0783 47.4044 56.094ZM49.1746 51.8708C49.7259 52.9418 50.1116 54.0669 50.2877 55.2814C50.3343 55.563 50.3369 55.8802 50.3058 56.1447C50.2308 56.4447 50.0444 56.6751 49.8348 56.7646C49.5035 56.8726 49.18 56.5752 48.8901 56.3305C47.6502 55.0175 46.3923 52.8412 46.343 50.8858C46.3481 50.1633 46.8088 49.6316 47.4973 49.8736C48.2738 50.0445 48.8251 51.1155 49.1746 51.8708ZM60.3424 43.249C61.0697 44.1779 61.6651 45.2134 62.0507 46.3384C62.1413 46.5845 62.2216 46.9187 62.2242 47.2358C62.2268 47.553 62.0741 47.8359 61.8981 47.9781C61.6005 48.1387 61.2226 47.9651 60.8887 47.7559C59.4522 46.7614 57.7982 44.905 57.4617 43.0219C57.3115 42.2653 57.6609 41.6638 58.3701 41.7295C59.0896 41.707 59.8506 42.6885 60.3424 43.249Z" fill="white"/>
<path d="M44.5544 48.8188C44.5285 48.3609 44.469 47.8503 44.5984 47.4265C44.7278 47.0028 45.0564 46.5777 45.4214 46.5223C46.0736 46.3945 46.6327 47.0603 47.2332 47.3733C48.2116 47.86 49.3141 47.2887 50.2174 46.7187C51.2526 46.042 52.2206 45.2602 53.1886 44.4783C53.6725 44.0874 54.1669 43.6082 54.3273 42.92C54.5835 41.7553 53.8096 40.5448 54.0994 39.4328C54.3245 38.5327 55.1734 38.0864 56.0043 38.1336C56.4365 38.1835 56.8584 38.3216 57.2699 38.5478C56.6824 38.4637 56.1182 38.5204 55.7895 38.9455C55.3728 39.4417 55.3237 40.1997 55.3962 40.9393C55.4687 41.6788 55.6292 42.3473 55.5127 43C55.3549 44.0054 54.5966 44.6978 53.8823 45.3546C52.816 46.2957 51.7056 47.2723 50.5047 48.003C49.7775 48.4308 48.9725 48.8415 48.1184 48.6535C47.4636 48.4642 46.7725 47.9051 46.1099 48.121C45.7346 48.2645 45.4836 48.7068 45.4319 49.1476C45.3801 49.5885 45.4397 50.099 45.5096 50.5214C45.7892 52.211 46.2241 53.9348 47.1223 55.444C47.6503 56.3742 48.388 57.215 49.2447 57.7201C49.1671 57.703 49.0558 57.6333 48.9781 57.6162C48.3777 57.3031 47.8419 56.7782 47.3941 56.1822C45.8488 54.0783 44.7978 51.4954 44.5544 48.8188Z" fill="white"/>
<path d="M118.191 87.1859C118.481 87.4306 118.727 87.7108 118.841 88.0977C118.955 88.4845 118.826 88.9083 118.528 89.0689C118.23 89.2295 117.896 89.0203 117.64 88.8283C116.861 88.3402 116.16 87.8693 115.381 87.3812C114.969 87.155 114.457 86.7708 114.485 86.1892C114.503 85.6957 114.767 85.4825 115.122 85.5153C116.152 85.5611 117.366 86.4162 118.191 87.1859Z" fill="white"/>
<path d="M115.471 88.9837C116.39 90.3165 117.299 91.7375 117.744 93.3732C117.892 93.8127 117.907 94.3588 117.599 94.6075C117.423 94.7497 117.146 94.734 116.924 94.5945C116.701 94.4551 116.522 94.2801 116.388 94.0696C115.704 93.1052 115.275 92.0157 114.767 90.9091C114.553 90.3643 114.294 89.8551 114.001 89.2933C113.843 88.9419 113.528 88.2393 114.068 88.0418C114.653 87.8087 115.168 88.51 115.471 88.9837Z" fill="white"/>
<path d="M112.992 90.4281C113.204 90.6557 113.328 90.9544 113.453 91.2531C113.768 91.9557 114.118 92.711 114.434 93.4136C114.941 94.5202 115.438 95.715 115.658 96.894C115.705 97.1756 115.751 97.4572 115.676 97.7573C115.645 98.0218 115.459 98.2521 115.249 98.3416C115.006 98.3785 114.739 98.2746 114.527 98.047C114.315 97.8194 114.224 97.5734 114.1 97.2747C113.344 95.5707 112.764 93.7246 112.34 91.9126C112.27 91.4902 111.998 90.752 112.161 90.3809C112.29 89.9571 112.746 90.1479 112.992 90.4281Z" fill="white"/>
<path d="M110.614 92.0302C111.137 93.6829 111.659 95.3356 111.696 97.0621C111.709 97.2911 111.722 97.5201 111.613 97.7675C111.548 97.9794 111.372 98.1215 111.173 98.1229C110.852 98.1427 110.616 97.7743 110.459 97.423C110.019 96.4216 109.71 95.3137 109.558 94.2399C109.465 93.6767 109.415 93.078 109.4 92.5319C109.397 92.2147 109.325 91.4752 109.589 91.262C110.127 90.7473 110.5 91.6434 110.614 92.0302Z" fill="white"/>
<path d="M108.561 90.1766C108.574 90.4056 108.509 90.6175 108.444 90.8294C108.053 91.7835 107.663 92.7376 107.306 93.7444C107.241 93.9563 107.132 94.2037 106.923 94.2932C106.713 94.3828 106.423 94.1381 106.332 93.892C106.242 93.646 106.239 93.3288 106.27 93.0643C106.418 92.1471 106.721 91.264 107.246 90.5204C107.432 90.2901 107.639 89.8834 107.893 89.7583C108.103 89.6688 108.514 89.895 108.561 90.1766Z" fill="white"/>
<path d="M108.286 87.7642C108.012 86.7089 107.771 85.7062 107.497 84.6509C107.36 84.1232 107.233 83.5074 107.339 82.9429C107.626 81.5137 108.576 81.2253 109.585 81.4475C110.561 81.617 111.64 82.2616 112.288 82.8562C113.157 83.5903 113.897 84.7482 113.874 85.9641C113.874 87.3209 112.943 88.4725 112.042 89.3596C111.734 89.6084 111.46 89.9098 111.04 90.0889C110.996 90.1244 110.875 90.1429 110.831 90.1784C110.411 90.3575 109.891 90.3786 109.446 90.0998C108.789 89.5933 108.504 88.6261 108.286 87.7642Z" fill="white"/>
<path d="M108.286 87.7642C108.012 86.7089 107.771 85.7062 107.497 84.6509C107.36 84.1232 107.233 83.5074 107.339 82.9429C107.626 81.5137 108.576 81.2253 109.585 81.4475C109.176 81.5383 108.757 81.7172 108.55 82.1239C108.113 82.7964 108.276 83.782 108.449 84.6794C108.68 85.7703 108.921 86.773 109.151 87.8639C109.335 88.6731 109.586 89.5876 110.264 89.9178C110.531 90.0217 110.841 90.0901 111.084 90.0532C111.04 90.0887 110.919 90.1071 110.875 90.1427C110.456 90.3217 109.935 90.3429 109.49 90.064C108.789 89.5931 108.504 88.6261 108.286 87.7642Z" fill="white"/>
<path d="M78.5513 64.2155C78.3494 63.8997 78.2019 63.4602 78.2873 63.072C78.2976 62.9838 78.352 62.8601 78.44 62.789C78.6807 62.435 79.0999 62.2559 79.4312 62.148C79.0093 62.0099 78.7505 61.5007 78.7582 61.0953C78.7763 60.6019 79.061 60.2123 79.4027 60.0161C79.7443 59.82 80.1869 59.7817 80.6088 59.9198C80.7641 59.954 80.953 60.0408 81.054 60.1987C81.2222 60.4618 81.2248 60.779 81.1161 61.0264C81.0074 61.2738 80.8211 61.5042 80.6347 61.7345C84.7837 61.3362 89.15 61.7997 93.2369 63.2872C93.0221 62.7424 93.1385 62.0897 93.5345 61.7698C93.7105 61.6277 93.9538 61.5908 94.1971 61.5539C94.7173 61.5327 95.2298 61.9169 95.4886 62.4261C95.7475 62.9353 95.7863 63.6222 95.5353 64.0644C95.3179 64.5592 94.7899 64.9857 94.28 64.9187C94.8236 65.0383 95.173 65.7936 95.1006 66.4108C95.0592 66.7635 94.8728 66.9938 94.6425 67.2597C94.4225 67.4374 94.2129 67.5269 93.9359 67.5112C93.3717 67.5679 92.8256 67.1311 92.4891 66.6048C92.3545 66.3943 92.2639 66.1482 92.2509 65.9193C92.238 65.6903 92.313 65.3902 92.489 65.2481C88.5031 63.9185 84.4007 63.2417 80.3372 63.2518C80.6374 63.4084 80.9429 64.1992 80.8678 64.4992C80.7928 64.7993 80.4848 65.048 80.1975 65.1205C79.9102 65.1929 79.566 65.0719 79.3434 64.9325C79.0768 64.8286 78.7532 64.5313 78.5513 64.2155Z" fill="white"/>
<path d="M78.5513 64.2155C78.3494 63.8997 78.2019 63.4602 78.2873 63.072C78.2976 62.9838 78.352 62.8601 78.44 62.789C78.4193 62.9654 78.3986 63.1418 78.4219 63.2826C78.4581 63.6524 78.6497 64.0563 78.9499 64.2129C79.2502 64.3694 79.6927 64.3311 79.8454 64.0482C80.0421 63.7297 79.9826 63.2191 79.7263 63.027C84.2428 62.8905 88.8317 63.4935 93.2396 64.9611C92.8099 65.2284 92.7064 66.1101 93.0093 66.5837C93.2681 67.093 93.879 67.3178 94.3992 67.2967C94.5209 67.2782 94.5649 67.2427 94.6865 67.2242C94.4665 67.4019 94.2569 67.4915 93.9799 67.4757C93.4157 67.5324 92.8696 67.0957 92.5331 66.5694C92.3985 66.3589 92.3079 66.1128 92.2949 65.8838C92.282 65.6549 92.357 65.3548 92.533 65.2126C88.5471 63.8831 84.4447 63.2063 80.3812 63.2164C80.6814 63.3729 80.9868 64.1637 80.9118 64.4638C80.8368 64.7638 80.5288 65.0126 80.2415 65.085C79.9542 65.1575 79.61 65.0365 79.3874 64.897C79.0768 64.8287 78.7532 64.5313 78.5513 64.2155Z" fill="white"/>
<path d="M94.5572 67.6481C94.5649 67.2428 94.728 66.8717 94.992 66.6585C95.08 66.5874 95.1576 66.6045 95.2456 66.5334C95.6105 66.478 96.0661 66.6688 96.444 66.8424C96.2084 66.474 96.2809 65.8568 96.5552 65.5554C96.8295 65.254 97.2825 65.1275 97.6604 65.3012C98.0822 65.4392 98.4058 65.7366 98.675 66.1576C98.7759 66.3155 98.8769 66.4734 98.8898 66.7024C98.8924 67.0195 98.7061 67.2498 98.4525 67.3749C98.1988 67.5 97.9555 67.5369 97.6786 67.5211C101.157 70.4575 104.31 74.1362 106.647 78.3138C106.753 77.7492 107.271 77.4109 107.781 77.4779C108.014 77.5292 108.236 77.6686 108.415 77.8436C108.806 78.2462 109.01 78.8791 108.948 79.4082C108.842 79.9727 108.503 80.486 108.006 80.648C107.509 80.8099 106.888 80.6732 106.497 80.2706C106.834 80.7969 106.741 81.5905 106.301 81.9459C106.081 82.1236 105.793 82.196 105.439 82.1632C105.162 82.1474 104.939 82.008 104.683 81.8159C104.215 81.3962 103.976 80.7107 104.049 80.0935C104.08 79.829 104.145 79.6171 104.243 79.4579C104.385 79.2631 104.605 79.0854 104.794 79.1722C102.47 75.2236 99.6717 71.5777 96.457 68.4281C96.5812 68.7268 96.4001 69.5914 96.1464 69.7164C95.8928 69.8415 95.5382 69.8087 95.282 69.6166C95.0257 69.4245 94.8238 69.1088 94.6996 68.8101C94.6193 68.4758 94.5494 68.0535 94.5572 67.6481Z" fill="white"/>
<path d="M94.5574 67.6479C94.5651 67.2426 94.7282 66.8715 94.9922 66.6582C95.0802 66.5872 95.1578 66.6043 95.2458 66.5332C95.1138 66.6398 95.0258 66.7109 94.9275 66.8701C94.7308 67.1886 94.679 67.6295 94.8369 67.9808C94.9948 68.3321 95.3184 68.6294 95.6497 68.5215C95.9706 68.5017 96.2216 68.0594 96.1077 67.6726C99.734 71.0485 102.977 74.9732 105.561 79.431C105.061 79.2759 104.479 79.8261 104.406 80.4433C104.334 81.0604 104.66 81.6749 105.061 81.9893C105.172 82.0591 105.25 82.0761 105.361 82.1459C105.084 82.1301 104.862 81.9907 104.606 81.7986C104.137 81.3789 103.899 80.6934 103.971 80.0762C104.002 79.8117 104.067 79.5998 104.165 79.4406C104.308 79.2458 104.528 79.0681 104.717 79.1549C102.392 75.2063 99.5943 71.5604 96.3795 68.4108C96.5038 68.7095 96.3227 69.5741 96.069 69.6991C95.8154 69.8242 95.4608 69.7914 95.2045 69.5993C94.9483 69.4072 94.7464 69.0915 94.6222 68.7928C94.6196 68.4756 94.5497 68.0532 94.5574 67.6479Z" fill="white"/>
<path d="M51.7484 129.363C51.7407 129.768 51.7769 130.138 51.9788 130.454C52.1807 130.77 52.5483 131.031 52.8459 130.871C53.1436 130.71 53.2289 130.322 53.2703 129.969C53.4178 129.052 53.5653 128.135 53.6792 127.165C53.7412 126.636 53.8137 126.019 53.4228 125.616C53.0657 125.266 52.7784 125.339 52.5377 125.693C51.914 126.596 51.7277 128.183 51.7484 129.363Z" fill="white"/>
<path d="M54.7404 128.303C55.064 129.957 55.5092 131.593 56.3738 133.049C56.6093 133.418 56.9562 133.856 57.3315 133.712C57.5411 133.623 57.7274 133.393 57.7585 133.128C57.7895 132.864 57.7766 132.635 57.73 132.353C57.5099 131.174 57.0026 130.067 56.5729 128.978C56.358 128.433 56.1432 127.888 55.9723 127.308C55.8248 126.869 55.553 126.13 55.0354 126.469C54.4737 126.843 54.6135 127.687 54.7404 128.303Z" fill="white"/>
<path d="M57.3884 127.122C57.391 127.439 57.5153 127.738 57.6395 128.036C57.9113 128.775 58.2271 129.477 58.4989 130.215C58.9623 131.358 59.4256 132.5 60.1426 133.517C60.2772 133.727 60.4894 133.955 60.712 134.094C60.9346 134.234 61.2116 134.25 61.4316 134.072C61.6516 133.894 61.7266 133.594 61.724 133.277C61.7214 132.96 61.5971 132.661 61.5065 132.415C60.7947 130.676 59.9172 128.99 58.8974 127.499C58.6618 127.131 58.302 126.464 57.9138 126.378C57.4919 126.24 57.3522 126.752 57.3884 127.122Z" fill="white"/>
<path d="M60.005 126.205C60.8255 127.698 61.6461 129.19 62.785 130.345C62.9299 130.467 63.1085 130.642 63.2974 130.729C63.4864 130.816 63.7297 130.779 63.828 130.62C64.0584 130.354 63.9108 129.914 63.7529 129.563C63.3129 128.562 62.7512 127.579 62.0911 126.755C61.7443 126.317 61.3535 125.914 60.9626 125.512C60.7504 125.284 60.2922 124.776 59.9273 124.832C59.4744 124.958 59.8031 125.89 60.005 126.205Z" fill="white"/>
<path d="M60.1032 123.333C60.2378 123.544 60.4707 123.595 60.626 123.629C61.5474 123.922 62.4689 124.215 63.4239 124.561C63.6129 124.648 63.8458 124.699 64.0218 124.557C64.1978 124.415 64.2392 124.062 64.1486 123.816C64.058 123.57 63.8018 123.378 63.5792 123.239C62.8441 122.715 62.0003 122.439 61.1695 122.392C60.8925 122.376 60.4603 122.326 60.2067 122.451C60.0307 122.593 59.8909 123.105 60.1032 123.333Z" fill="white"/>
<path d="M58.5606 121.546C57.9886 120.652 57.4165 119.757 56.8445 118.862C56.5416 118.388 56.2051 117.862 55.76 117.583C54.603 116.922 53.7774 117.509 53.2649 118.481C52.7525 119.454 52.486 120.707 52.4602 121.605C52.4369 122.821 52.7579 124.158 53.5836 124.928C54.5542 125.82 55.9493 125.81 57.1321 125.573C57.541 125.482 57.906 125.427 58.2476 125.231C58.2916 125.195 58.4132 125.177 58.4572 125.141C58.8869 124.874 59.2156 124.449 59.3113 123.973C59.4924 123.108 59.0317 122.283 58.5606 121.546Z" fill="white"/>
<path d="M58.5606 121.546C57.9886 120.652 57.4165 119.757 56.8445 118.862C56.5416 118.388 56.2051 117.862 55.76 117.583C54.603 116.922 53.7774 117.509 53.2649 118.481C53.6169 118.197 53.9586 118.001 54.3908 118.051C55.1776 118.134 55.76 118.94 56.2311 119.677C56.8031 120.572 57.4192 121.431 57.9912 122.326C58.4287 123.01 58.9334 123.799 58.7186 124.611C58.6436 124.911 58.4572 125.142 58.2709 125.372C58.3149 125.336 58.4365 125.318 58.4805 125.282C58.9102 125.015 59.2388 124.59 59.3346 124.114C59.4924 123.108 59.0317 122.283 58.5606 121.546Z" fill="white"/>
<path d="M61.421 81.5647C61.3071 81.1779 61.1155 80.7739 60.8153 80.6174C60.7376 80.6003 60.6263 80.5306 60.5487 80.5135C60.1941 80.4807 59.7308 80.6953 59.4668 80.9085C59.6299 80.5374 59.459 79.9571 59.1355 79.6598C58.8119 79.3624 58.3357 79.3481 57.9604 79.4916C57.5851 79.6351 57.3004 80.0247 57.1374 80.3958C57.0391 80.5551 56.9744 80.7669 57.0313 80.9604C57.0779 81.242 57.2902 81.4696 57.5567 81.5735C57.8233 81.6774 58.1003 81.6931 58.3436 81.6562C55.3802 84.848 52.8879 88.7766 51.2627 93.1222C51.0479 92.5774 50.4474 92.2644 49.9944 92.3908C49.7511 92.4277 49.5752 92.5699 49.3888 92.8002C49.0601 93.2253 48.9437 93.878 49.1585 94.4228C49.3294 95.0031 49.7979 95.4228 50.2974 95.5779C50.7969 95.7331 51.4155 95.5527 51.7442 95.1276C51.4828 95.6579 51.7443 96.4843 52.2671 96.7803C52.5234 96.9723 52.8443 96.9525 53.1212 96.9683C53.3645 96.9314 53.5845 96.7537 53.8045 96.576C54.1772 96.1153 54.2936 95.4626 54.1331 94.7941C54.0762 94.6007 53.9856 94.3546 53.807 94.1796C53.6284 94.0047 53.4058 93.8652 53.1962 93.9547C54.8343 89.8381 57.0393 85.982 59.6688 82.581C59.6274 82.9337 59.9328 83.7245 60.1994 83.8284C60.4997 83.9849 60.831 83.877 61.051 83.6993C61.2709 83.5216 61.434 83.1504 61.509 82.8504C61.4831 82.3925 61.4909 81.9871 61.421 81.5647Z" fill="white"/>
<path d="M61.4212 81.565C61.3073 81.1782 61.1158 80.7742 60.8156 80.6177C60.7379 80.6006 60.6266 80.5309 60.549 80.5138C60.6603 80.5835 60.8052 80.7058 60.9502 80.8282C61.196 81.1084 61.3436 81.5479 61.2245 81.8835C61.1392 82.2717 60.8312 82.5205 60.5102 82.5403C60.1556 82.5075 59.8424 82.122 59.8838 81.7693C56.8247 85.4375 54.3014 89.6306 52.4458 94.2421C52.9091 94.0275 53.5666 94.5339 53.7374 95.1142C53.9083 95.6945 53.7142 96.3302 53.3078 96.7382C53.2199 96.8093 53.1319 96.8804 53.0439 96.9514C53.2871 96.9145 53.5071 96.7368 53.7271 96.5591C54.0998 96.0985 54.2163 95.4457 54.0558 94.7773C53.9988 94.5839 53.9082 94.3378 53.7296 94.1628C53.551 93.9878 53.3284 93.8484 53.1188 93.9379C54.7569 89.8213 56.9619 85.9652 59.5914 82.5642C59.55 82.9169 59.8555 83.7077 60.1221 83.8116C60.4223 83.9681 60.7536 83.8601 60.9736 83.6824C61.1936 83.5047 61.3566 83.1336 61.4317 82.8336C61.4834 82.3927 61.4911 81.9874 61.4212 81.565Z" fill="white"/>
<path d="M53.4218 97.1249C53.1319 96.8802 52.754 96.7065 52.4564 96.8671C52.3684 96.9382 52.2908 96.9211 52.2364 97.0448C51.9284 97.2936 51.7887 97.8056 51.7033 98.1938C51.5997 97.7187 51.1546 97.4399 50.756 97.4426C50.3574 97.4453 49.995 97.8178 49.832 98.1889C49.7026 98.6127 49.6845 99.1062 49.7881 99.5812C49.845 99.7746 49.902 99.968 50.0469 100.09C50.2592 100.318 50.5801 100.298 50.7561 100.156C51.0097 100.031 51.1961 99.8006 51.3384 99.6059C51.1005 104.347 51.6288 109.348 52.9956 113.99C52.5064 113.747 51.9654 113.944 51.6704 114.422C51.5617 114.669 51.497 114.881 51.4996 115.198C51.5488 115.797 51.8413 116.359 52.2865 116.638C52.7317 116.917 53.3296 116.913 53.7592 116.645C54.1888 116.378 54.5382 115.777 54.489 115.178C54.6159 115.794 55.2837 116.212 55.8142 116.103C56.1015 116.03 56.3655 115.817 56.5182 115.534C56.6606 115.339 56.7356 115.039 56.733 114.722C56.7278 114.088 56.4016 113.473 55.9332 113.054C55.7882 112.931 55.5656 112.792 55.3663 112.793C55.167 112.795 54.8797 112.867 54.815 113.079C53.5492 108.595 52.8683 103.877 52.7412 99.191C52.8655 99.4897 53.5772 99.8725 53.8309 99.7474C54.0845 99.6224 54.2812 99.3039 54.3226 98.9512C54.364 98.5985 54.2838 98.2643 54.1259 97.913C53.9913 97.7024 53.7117 97.3696 53.4218 97.1249Z" fill="white"/>
<path d="M53.4218 97.1249C53.1319 96.8802 52.754 96.7065 52.4564 96.8671C52.3684 96.9382 52.2908 96.9211 52.2364 97.0448C52.4021 96.9909 52.5239 96.9724 52.6792 97.0066C53.0337 97.0394 53.3676 97.2486 53.5255 97.5999C53.6834 97.9512 53.6317 98.3921 53.4013 98.658C53.1374 98.8712 52.7051 98.8213 52.5032 98.5055C52.4905 103.703 53.1534 108.914 54.5901 113.979C54.8074 113.484 55.5813 113.338 56.0265 113.617C56.5054 113.948 56.7098 114.581 56.6814 115.163C56.6711 115.251 56.6504 115.428 56.64 115.516C56.7824 115.321 56.8574 115.021 56.8548 114.704C56.8496 114.069 56.5234 113.455 56.055 113.035C55.91 112.913 55.6874 112.774 55.4881 112.775C55.2888 112.776 55.0015 112.849 54.9368 113.061C53.671 108.576 52.9901 103.859 52.863 99.1726C52.9873 99.4713 53.699 99.8541 53.9527 99.729C54.2063 99.6039 54.403 99.2854 54.4444 98.9328C54.4858 98.5801 54.4056 98.2459 54.2477 97.8945C53.9914 97.7025 53.7117 97.3696 53.4218 97.1249Z" fill="white"/>
<path d="M52.1425 35.7456C52.2253 35.0403 52.642 34.5441 53.2399 34.54C50.5712 29.1136 48.3088 23.2793 46.313 17.5488C46.1836 17.9726 45.6194 18.0293 45.2415 17.8557C44.8636 17.682 44.5944 17.261 44.5685 16.8031C44.5788 16.7149 44.5555 16.5741 44.5659 16.4859C44.6073 16.1332 44.76 15.8503 44.9903 15.5844C45.1767 15.3541 45.3863 15.2646 45.6632 15.2803C45.9065 15.2434 46.1731 15.3473 46.2974 15.646C46.3258 15.0643 46.5872 14.534 47.0168 14.2667C47.4465 13.9995 48.0004 14.031 48.4352 14.398C48.87 14.7651 49.0305 15.4335 48.8908 15.9454C48.7071 16.4929 48.0445 16.7089 47.5449 16.5537C49.3207 22.4619 51.6815 28.137 54.5598 33.4738C55.0749 32.8183 56.1593 32.7405 56.7961 33.4233C57.3552 34.089 57.3759 35.2694 56.8272 35.8723C56.2786 36.4751 55.2148 36.3766 54.6997 35.6753C54.692 36.0806 54.6506 36.4333 54.6092 36.786C54.5238 37.1742 54.3711 37.4572 54.1071 37.6704C53.9751 37.777 53.8094 37.831 53.6102 37.8324C53.4109 37.8337 53.1779 37.7825 52.989 37.6957C52.4428 37.2589 52.0597 36.451 52.1425 35.7456Z" fill="white"/>
<path d="M52.1425 35.7456C52.2253 35.0403 52.642 34.5441 53.2399 34.54C50.5712 29.1136 48.3088 23.2793 46.313 17.5488C46.1836 17.9726 45.6194 18.0293 45.2415 17.8557C44.8636 17.682 44.5944 17.261 44.5685 16.8031C44.5788 16.7149 44.5555 16.5741 44.5659 16.4859C44.6565 16.732 44.7471 16.9781 44.9257 17.1531C45.1819 17.3452 45.4925 17.4135 45.7461 17.2885C45.9998 17.1634 46.3414 16.9672 46.3828 16.6146C48.7824 22.9766 51.314 29.232 54.0112 35.4334C53.667 35.3124 53.258 35.4033 52.994 35.6166C52.6861 35.8653 52.5567 36.2891 52.6266 36.7115C52.6732 36.9931 52.8414 37.2562 53.02 37.4312C53.1986 37.6062 53.3436 37.7285 53.5325 37.8154C53.3332 37.8167 53.1003 37.7655 52.9113 37.6786C52.4428 37.259 52.0597 36.451 52.1425 35.7456Z" fill="white"/>
<path d="M40.9852 46.9931C40.6358 47.5946 40.641 48.2289 41.0888 48.8249C36.0858 50.3919 31.0881 52.5933 26.3465 54.9867C26.4759 54.5629 26.1394 54.0366 25.7615 53.863C25.3837 53.6894 24.9411 53.7276 24.6227 54.0646C24.5347 54.1357 24.5244 54.2238 24.4364 54.2949C24.2837 54.5779 24.1983 54.9661 24.2009 55.2832C24.2475 55.5648 24.3278 55.8991 24.4624 56.1096C24.6306 56.3727 24.8972 56.4766 25.1068 56.3871C24.7782 56.8122 24.7057 57.4294 24.8429 57.9571C24.9801 58.4847 25.4383 58.9926 25.9042 59.0951C26.37 59.1977 26.9213 58.912 27.1051 58.3645C27.2888 57.8171 26.9393 57.0618 26.4942 56.7829C31.1891 54.1079 36.1661 52.0829 41.3037 50.7264C41.2779 51.6252 42.0389 52.6067 42.8697 52.6539C43.6669 52.6484 44.3579 51.8508 44.3061 50.935C44.2543 50.0191 43.4726 49.2139 42.6754 49.2193C42.9058 48.9535 43.1024 48.635 43.2551 48.352C43.3742 48.0164 43.4596 47.6282 43.3793 47.294C43.3224 47.1005 43.2654 46.9071 43.1205 46.7848C42.9859 46.5742 42.7969 46.4874 42.5743 46.348C42.0748 46.1928 41.3346 46.3917 40.9852 46.9931Z" fill="white"/>
<path d="M40.9852 46.9931C40.6358 47.5946 40.641 48.2289 41.0888 48.8249C36.0858 50.3919 31.0881 52.5933 26.3465 54.9867C26.4759 54.5629 26.1394 54.0366 25.7615 53.863C25.3837 53.6894 24.9411 53.7276 24.6227 54.0646C24.5347 54.1357 24.5244 54.2238 24.4364 54.2949C24.6124 54.1528 24.8557 54.1161 25.0887 54.1674C25.3656 54.1832 25.6115 54.4634 25.7357 54.7621C25.86 55.0608 25.9635 55.5358 25.7772 55.7661C31.127 53.2805 36.5337 50.9883 42.075 48.9066C41.7851 48.6619 41.5495 48.2934 41.4356 47.9066C41.3657 47.4842 41.4951 47.0604 41.8031 46.8116C41.9791 46.6695 42.2664 46.597 42.4993 46.6483C42.6986 46.647 42.8876 46.7338 43.0765 46.8206C42.9419 46.6101 42.753 46.5233 42.5304 46.3838C42.0748 46.1931 41.3346 46.3917 40.9852 46.9931Z" fill="white"/>
<path d="M76.0736 90.7959C79.1228 90.8778 82.3875 93.1724 82.4968 95.9481C82.6061 98.7238 79.4858 100.927 76.4366 100.845C73.3874 100.763 71.5919 98.4746 71.4826 95.6989C71.4068 92.9757 73.058 90.7663 76.0736 90.7959Z" fill="#170530"/>
<path d="M89.894 88.4985C89.4889 91.9307 87.1255 95.1142 84.723 94.5876C82.3205 94.061 80.809 90.028 81.2141 86.5958C81.6193 83.1635 83.7853 81.6521 86.1878 82.1787C88.5903 82.7054 90.3327 85.1187 89.894 88.4985Z" fill="#170530"/>
<path d="M78.1155 89.2903C78.6998 89.3734 79.1917 88.8968 79.5292 88.3863C79.6813 88.1049 79.8333 87.8235 79.8309 87.5083C79.8723 87.1577 79.7927 86.8255 79.5818 86.5994C79.3709 86.3734 79.0286 86.2534 78.7763 86.3779C78.5678 86.4671 78.4595 86.7131 78.395 86.9238C78.3305 87.1345 78.3767 87.4143 78.3456 87.6773C78.1013 87.3989 77.6173 87.4727 77.3881 87.7372C77.1588 88.0016 77.1508 88.4045 77.3076 88.7536C77.5082 89.0673 77.8401 89.2749 78.1155 89.2903Z" fill="black"/>
</svg>
