<svg width="136" height="157" viewBox="0 0 136 157" fill="none" xmlns="http://www.w3.org/2000/svg">
<path d="M76.8871 109.87C74.6861 106.425 73.7653 101.948 74.1252 97.5307C74.2584 96.16 74.6005 94.8733 75.2382 93.6848C74.4025 93.3489 73.685 92.8334 73.1368 92.097C72.7306 91.5828 72.4268 90.9859 72.45 90.2934C72.4692 89.3516 73.1308 88.5649 73.8517 88.2355C74.6239 87.8648 75.5066 87.9101 76.287 88.038C75.7429 87.551 75.7265 86.5536 76.0611 85.8625C76.4823 85.1856 77.1678 84.8006 77.8574 84.665C78.5824 84.585 79.276 84.6987 79.954 84.9093C79.9417 84.1613 80.0674 83.3862 80.4019 82.6951C80.7365 82.0039 81.3154 81.4523 81.9695 81.2612C82.659 81.1256 83.408 81.4473 83.6449 82.1824C83.7821 81.0611 84.3529 80.0108 85.2077 79.4049C85.6173 79.0742 86.098 78.8547 86.6182 78.94C87.1896 78.9839 87.6983 79.4154 87.9508 80.0537C88.0573 80.2203 88.1126 80.4283 88.1679 80.6363C88.2628 81.1492 88.271 81.6479 88.228 82.1879C89.7054 81.5847 91.3289 81.453 92.8739 81.8058C96.8664 82.7091 100.556 85.204 102.828 88.7594C107.55 96.1481 104.623 105.416 97.4547 111.203C93.3583 114.51 88.7642 115.945 84.689 115.277C81.6899 114.835 78.9106 113.036 76.8871 109.87Z" fill="black"/>
<path d="M76.8871 109.87C74.6861 106.425 73.7653 101.948 74.1252 97.5307C74.2584 96.16 74.6005 94.8733 75.2382 93.6848C74.4025 93.3489 73.685 92.8334 73.1368 92.097C72.7306 91.5828 72.4268 90.9859 72.45 90.2934C72.4692 89.3516 73.1308 88.5649 73.8517 88.2355C74.6239 87.8648 75.5066 87.9101 76.287 88.038C75.7429 87.551 75.7265 86.5536 76.0611 85.8625C76.4823 85.1856 77.1678 84.8006 77.8574 84.665C78.5824 84.585 79.276 84.6987 79.954 84.9093C79.9417 84.1613 80.0674 83.3862 80.4019 82.6951C80.7365 82.0039 81.3154 81.4523 81.9695 81.2612C82.659 81.1256 83.408 81.4473 83.6449 82.1824C83.7821 81.0611 84.3529 80.0108 85.2077 79.4049C85.6173 79.0742 86.098 78.8547 86.6182 78.94C87.1896 78.9839 87.6983 79.4154 87.9508 80.0537C87.7931 79.9283 87.6709 79.8588 87.4619 79.7748C86.9929 79.6482 86.4768 79.8122 86.0671 80.1429C85.6575 80.4736 85.3701 80.8741 85.1181 81.3301C84.5985 82.339 84.3234 83.4875 84.4107 84.5959C84.1581 83.9577 83.8031 83.4022 83.3969 82.888C83.1682 82.6516 82.9395 82.4151 82.5927 82.3583C82.1592 82.2872 81.6628 82.6036 81.4621 83.0183C81.159 83.5157 81.0135 84.1384 81.0415 84.7895C81.034 85.3851 81.1998 86.009 81.3302 86.5775C80.4864 85.7429 79.2882 85.4469 78.1337 85.7052C77.8067 85.8008 77.4797 85.8964 77.2592 86.1586C77.0031 86.3653 76.8181 86.6831 76.842 87.0849C76.8304 87.4311 77.0079 87.7089 77.1854 87.9867C77.4339 88.3755 77.7691 88.7786 78.12 89.0848C77.0085 88.8031 75.8342 88.909 74.8218 89.3895C74.5814 89.4993 74.3411 89.6091 74.2073 89.8855C74.0735 90.162 74.0618 90.5082 74.1881 90.8273C74.3144 91.1464 74.5431 91.3829 74.7876 91.5224C75.6471 92.2601 76.7428 92.6387 77.8147 92.6155C75.311 97.0789 74.9756 102.992 76.9014 107.585C78.4484 111.22 81.3307 114.03 84.7757 115.291C81.6898 114.835 78.9106 113.036 76.8871 109.87Z" fill="black"/>
<path d="M60.1619 56.002C60.2561 55.4206 60.8194 54.9659 61.2768 55.4388C67.8068 62.378 73.3523 70.4488 77.6648 79.2623C77.9685 79.8592 77.5118 80.4806 77.0981 80.5619C76.8734 80.5748 76.6133 80.5322 76.487 80.2131C72.2456 71.5106 66.8223 63.5096 60.3633 56.6815C60.1701 56.5006 60.1305 56.1957 60.1619 56.002Z" fill="black"/>
<path d="M60.1619 56.002C66.9363 63.0807 72.7459 71.4436 77.1335 80.6176C76.9089 80.6305 76.6488 80.5879 76.5225 80.2688C72.281 71.5663 66.8577 63.5653 60.3987 56.7372C60.17 56.5007 60.1305 56.1957 60.1619 56.002Z" fill="black"/>
<path d="M64.502 84.415C64.2849 83.8323 64.3791 83.251 64.5287 82.8776C64.7294 82.463 64.9656 82.1038 65.2729 81.8558C65.4777 81.6905 65.789 81.6918 65.9665 81.9695C66.1085 82.1917 66.0614 82.4824 65.9433 82.662C65.8251 82.8415 65.707 83.0211 65.6244 83.2562C65.6244 83.2562 65.5732 83.2976 65.6087 83.3531C65.5773 83.5469 65.5814 83.7962 65.6681 83.8105C65.6681 83.8105 65.7903 83.8802 65.9637 83.9087C66.1371 83.9371 66.4129 83.8829 66.6532 83.7731C67.1694 83.609 67.6145 83.3339 68.1109 83.0174C68.6072 82.7009 69.1193 82.2876 69.6313 81.8742L72.688 79.4908C73.7121 78.6641 74.685 77.8787 75.7091 77.052C77.7061 75.4398 79.6676 73.7721 81.5936 72.0489C82.5822 71.1666 83.5196 70.3256 84.1614 69.3864C84.3307 69.1655 84.4645 68.8891 84.4959 68.6953C84.5629 68.5571 84.5431 68.4046 84.5588 68.3077C84.4878 68.1966 84.4168 68.0855 84.2434 68.0571L84.1566 68.0429C84.0187 68.07 83.8453 68.0416 83.6917 68.1656C83.4514 68.2754 83.1558 68.1772 83.065 67.9136C82.9742 67.6501 83.0568 67.4149 83.2616 67.2496C83.5689 67.0016 83.9983 66.8233 84.3963 66.8389C84.8456 66.813 85.3856 67.0508 85.6184 67.5366C85.9024 67.981 85.9815 68.5908 85.8518 69.1166C85.7378 69.5455 85.5882 69.9188 85.3875 70.3335C84.6317 71.7015 83.6274 72.6807 82.7255 73.5772C80.8548 75.5085 78.8776 77.2731 76.8293 78.9266C75.8052 79.7533 74.7811 80.58 73.7215 81.3512C72.6619 82.1224 71.6023 82.8936 70.5072 83.6092C69.4121 84.3249 68.3013 85.1374 66.8198 85.4913C66.4572 85.5313 66.0947 85.5713 65.6612 85.5002C65.4878 85.4718 65.2277 85.4292 65.0345 85.2483C64.857 84.9705 64.5928 84.6785 64.502 84.415Z" fill="black"/>
<path d="M65.5346 84.0872C65.3926 83.8649 65.4042 83.5187 65.538 83.2423L65.5892 83.2009C65.5892 83.2009 65.538 83.2423 65.5735 83.2978C65.5421 83.4916 65.5462 83.7409 65.6329 83.7552C65.6329 83.7552 65.7551 83.8249 65.9285 83.8534C66.1019 83.8818 66.3777 83.8275 66.6181 83.7178C67.1342 83.5537 67.5793 83.2786 68.0757 82.9621C68.572 82.6456 69.0841 82.2322 69.5961 81.8189L72.6528 79.4355C73.6769 78.6088 74.6498 77.8234 75.6739 76.9967C77.6709 75.3845 79.6324 73.7168 81.5584 71.9936C82.547 71.1113 83.4844 70.2703 84.1262 69.3311C84.2955 69.1102 84.4293 68.8338 84.4607 68.64C84.5277 68.5018 84.5079 68.3493 84.5236 68.2524C84.4526 68.1413 84.3816 68.0302 84.2082 68.0018L84.1215 67.9876C84.5352 67.9062 84.8547 68.4062 84.8274 68.8493C84.8 69.2924 84.5126 69.6929 84.2764 70.052C82.8194 71.9019 81.0982 73.4598 79.3572 74.8653C76.3716 77.3597 73.2638 79.7844 70.1717 82.1122C69.0609 82.9247 67.8988 83.7786 66.6262 84.2164C66.248 84.3533 65.7476 84.4205 65.5346 84.0872Z" fill="black"/>
<path d="M62.5944 77.7863C62.4128 77.2591 62.4913 76.7747 62.6408 76.4013C62.7904 76.028 63.0621 75.7244 63.3181 75.5177C63.5229 75.3524 63.8343 75.3537 64.0118 75.6315C64.1538 75.8537 64.1578 76.103 63.9885 76.3239L63.9373 76.3653C63.8192 76.5448 63.7011 76.7244 63.6697 76.9182C63.654 77.0151 63.654 77.0151 63.6383 77.112C63.6738 77.1675 63.6581 77.2644 63.7093 77.2231C63.6738 77.1675 63.7093 77.2231 63.8827 77.2515C64.0206 77.2244 64.2452 77.2115 64.4343 77.143C64.8125 77.0061 65.2065 76.7723 65.6516 76.4972C66.0613 76.1665 66.5064 75.8913 66.9161 75.5606L69.4763 73.4938C70.3468 72.791 71.1661 72.1296 72.0366 71.4269C73.7264 70.0628 75.3806 68.6431 77.0349 67.2234C77.8699 66.4651 78.6892 65.8038 79.2129 65.0442C79.331 64.8646 79.4491 64.685 79.4805 64.4912C79.5474 64.353 79.5119 64.2975 79.5631 64.2561C79.5276 64.2006 79.4921 64.145 79.3699 64.0752C79.3344 64.0197 79.2832 64.061 79.1965 64.0468C79.1098 64.0326 78.9719 64.0597 78.8695 64.1424C78.6292 64.2522 78.3335 64.154 78.2427 63.8904C78.152 63.6269 78.2346 63.3918 78.4394 63.2264C78.6954 63.0197 79.0381 62.8273 79.4362 62.8428C79.8342 62.8583 80.3387 63.0405 80.5872 63.4294C80.8712 63.8738 80.9149 64.428 80.8009 64.8569C80.738 65.2445 80.553 65.5623 80.4035 65.9356C79.7658 67.1241 78.8796 67.9238 78.1668 68.7518C76.5678 70.3795 74.949 71.8547 73.2081 73.2602C72.3376 73.9629 71.4671 74.6656 70.5611 75.3128C69.6551 75.96 68.7491 76.6072 67.8943 77.213C66.9528 77.8046 65.9956 78.4931 64.7545 78.7372C64.4786 78.7915 64.1161 78.8315 63.7338 78.7191C63.5604 78.6906 63.3515 78.6067 63.1426 78.5227C62.9139 78.2862 62.6851 78.0498 62.5944 77.7863Z" fill="black"/>
<path d="M63.6741 77.1672C63.6386 77.1116 63.6543 77.0147 63.6543 77.0147C63.6898 77.0703 63.6741 77.1672 63.7253 77.1258C63.6898 77.0703 63.7253 77.1258 63.8987 77.1543C64.0366 77.1272 64.2612 77.1143 64.4503 77.0458C64.8286 76.9089 65.2225 76.6751 65.6677 76.3999C66.0773 76.0692 66.5224 75.7941 66.9321 75.4634L69.4924 73.3965C70.3628 72.6938 71.1821 72.0324 72.0526 71.3297C73.7424 69.9656 75.3967 68.5459 77.0509 67.1262C77.8859 66.3679 78.7052 65.7065 79.2289 64.9469C79.347 64.7674 79.4651 64.5878 79.4965 64.394C79.5634 64.2558 79.528 64.2002 79.5792 64.1589C79.5437 64.1034 79.5082 64.0478 79.386 63.978C79.3505 63.9225 79.2992 63.9638 79.2125 63.9496C79.4017 63.8811 79.5751 63.9096 79.7328 64.0349C79.9615 64.2713 79.8987 64.6589 79.8003 64.9909C79.6665 65.2674 79.446 65.5296 79.19 65.7363C74.7986 70.0393 70.1785 74.1058 65.0416 77.2422C64.8013 77.352 64.5452 77.5587 64.3206 77.5716C64.096 77.5845 63.7649 77.4307 63.6741 77.1672Z" fill="black"/>
<path d="M61.2544 70.9518C61.1083 70.4802 61.1711 70.0926 61.3206 69.7193C61.4544 69.4429 61.675 69.1806 61.8798 69.0153C62.0846 68.8499 62.3959 68.8512 62.5734 69.129C62.6799 69.2957 62.684 69.545 62.5659 69.7246L62.5147 69.7659C62.4478 69.9041 62.3809 70.0424 62.3652 70.1392C62.3652 70.1392 62.3652 70.1392 62.4164 70.0979C62.5031 70.1121 62.641 70.085 62.7434 70.0023C63.3107 69.7969 63.9252 69.3009 64.5397 68.8049L68.4313 65.6632C69.7114 64.6298 70.9915 63.5964 72.2362 62.5074C72.8663 61.9145 73.4808 61.4184 73.9219 60.894C73.9888 60.7557 74.0912 60.6731 74.1581 60.5348C74.2093 60.4935 74.2093 60.4935 74.2093 60.4935C74.2093 60.4935 74.2605 60.4521 74.1738 60.4379C74.1383 60.3824 74.0871 60.4237 74.0004 60.4095C74.0004 60.4095 73.9137 60.3953 73.8625 60.4366L73.8113 60.478C73.571 60.5877 73.291 60.3927 73.2003 60.1291C73.145 59.9211 73.1921 59.6304 73.3969 59.4651C73.6017 59.2997 73.8932 59.1486 74.2558 59.1086C74.5671 59.1099 74.9849 59.2779 75.2334 59.6667C75.4819 60.0556 75.5413 60.513 75.443 60.845C75.3446 61.177 75.262 61.4121 75.1282 61.6885C74.5731 62.6419 73.9785 63.2904 73.3838 63.9389C72.1944 65.2359 70.8986 66.3662 69.5673 67.441C68.9016 67.9783 68.2359 68.5157 67.5348 68.9975C66.8336 69.4794 66.1324 69.9612 65.4312 70.443C64.7301 70.9249 63.9777 71.448 62.9256 71.6237C62.6498 71.6779 62.4252 71.6908 62.0784 71.6339C61.905 71.6055 61.7828 71.5357 61.5738 71.4517C61.5738 71.4517 61.3451 71.2153 61.2544 70.9518Z" fill="black"/>
<path d="M62.4007 70.1951C62.5386 70.168 62.6765 70.1409 62.8144 70.1138C63.3818 69.9084 63.9962 69.4124 64.6107 68.9163L68.5023 65.7747C69.7824 64.7413 71.0625 63.7079 72.3072 62.6189C72.9373 62.0259 73.5518 61.5299 73.9929 61.0054C74.0598 60.8672 74.1622 60.7845 74.2291 60.6463C74.2803 60.6049 74.2803 60.6049 74.2803 60.6049C74.2803 60.6049 74.3315 60.5636 74.2448 60.5494C74.2093 60.4938 74.1581 60.5352 74.0714 60.521C74.1738 60.4383 74.3472 60.4667 74.4182 60.5778C74.5759 60.7032 74.58 60.9525 74.4619 61.1321C74.395 61.2703 74.2769 61.4498 74.1233 61.5739C70.7362 64.8977 67.0337 67.9708 63.0274 70.4471C62.8738 70.5711 62.6847 70.6396 62.5625 70.5698C62.4915 70.4587 62.385 70.292 62.4007 70.1951Z" fill="black"/>
<path d="M52.8752 61.9688C53.3524 62.5941 53.8808 63.1781 54.5943 63.4443C54.681 63.4585 54.8032 63.5283 54.8899 63.5425C55.4811 63.7389 56.2062 63.6588 56.7182 63.2455C57.5375 62.5841 57.6905 61.3658 57.6031 60.2574C57.4646 59.1903 57.1526 58.0947 57.2387 57.0147C57.4463 54.9102 59.4945 53.2568 61.1412 52.4326C62.9416 51.4845 65.1208 51.4937 66.8003 52.6643C67.7622 53.3193 68.7992 54.3348 69.8827 53.9654C70.588 53.7329 71.0407 52.8622 71.1308 52.0315C71.2209 51.2009 70.9998 50.3689 70.7629 49.6338C69.784 46.8871 68.0329 44.5112 65.8448 42.9091C65.5294 42.6585 65.1628 42.4492 64.7962 42.2399C64.3428 42.0163 63.8738 41.8897 63.3891 41.86C62.4551 41.856 61.4781 42.3921 61.1832 43.3881C60.8056 44.6193 61.6576 45.9526 61.28 47.1837C61.0676 47.9446 60.4887 48.4962 59.9254 48.9509C58.8344 49.9159 57.6724 50.7697 56.4749 51.5681C55.431 52.2423 54.2136 52.8882 53.0824 52.4541C52.4202 52.1465 51.8208 51.4515 51.08 51.6284C50.6151 51.7511 50.2764 52.1929 50.1112 52.6632C49.946 53.1334 49.9384 53.729 49.9978 54.1863C50.1493 57.0956 51.2149 59.8565 52.8752 61.9688ZM55.0635 57.2549C55.6356 58.3931 56.0185 59.5997 56.1612 60.9162C56.2008 61.221 56.1892 61.5673 56.1421 61.8579C56.0437 62.19 55.8232 62.4522 55.5829 62.562C55.2047 62.6989 54.8537 62.3927 54.5383 62.1421C53.2016 60.779 51.884 58.4742 51.9182 56.3413C51.9572 55.5519 52.5006 54.9448 53.2653 55.1696C54.1323 55.3118 54.7044 56.45 55.0635 57.2549ZM68.0423 47.1984C68.8192 48.1712 69.4425 49.2681 69.8255 50.4747C69.9163 50.7383 69.9914 51.0987 69.9798 51.4449C69.9681 51.7912 69.7831 52.109 69.5783 52.2743C69.2356 52.4668 68.8177 52.2988 68.4511 52.0895C66.8782 51.0856 65.0998 49.1528 64.8069 47.1155C64.6725 46.2977 65.0937 45.6208 65.8898 45.6518C66.7015 45.586 67.5139 46.6144 68.0423 47.1984Z" fill="black"/>
<path d="M49.9978 54.1863C49.9896 53.6876 49.946 53.1334 50.1112 52.6632C50.2764 52.1929 50.6663 51.7098 51.08 51.6284C51.8208 51.4515 52.4202 52.1465 53.0824 52.4541C54.1624 52.9295 55.431 52.2423 56.4749 51.5681C57.6724 50.7697 58.7989 49.8603 59.9254 48.9509C60.4887 48.4962 61.0676 47.9446 61.28 47.1837C61.6221 45.897 60.8056 44.6193 61.1832 43.3881C61.4781 42.3921 62.4551 41.856 63.3891 41.86C63.8738 41.8897 64.3428 42.0163 64.7962 42.2399C64.138 42.1817 63.4997 42.276 63.1098 42.7591C62.6176 43.3249 62.5274 44.1556 62.5752 44.9592C62.6229 45.7627 62.7731 46.4836 62.612 47.2032C62.388 48.3103 61.5018 49.1099 60.6668 49.8682C59.4222 50.9572 58.1264 52.0875 56.7397 52.9543C55.9006 53.4632 54.9749 53.958 54.0211 53.8016C53.292 53.6323 52.5389 53.0612 51.7825 53.335C51.353 53.5133 51.0499 54.0107 50.9714 54.4951C50.8928 54.9796 50.9365 55.5338 50.9959 55.9911C51.2334 57.8205 51.6444 59.6782 52.5871 61.2751C53.1394 62.2608 53.9321 63.1368 54.8742 63.6394C54.7875 63.6252 54.6653 63.5554 54.5786 63.5412C53.9163 63.2337 53.3367 62.691 52.8595 62.0657C51.2149 59.8565 50.1493 57.0956 49.9978 54.1863Z" fill="black"/>
<path d="M131.208 91.8709C131.523 92.1215 131.787 92.4135 131.898 92.8295C132.008 93.2455 131.843 93.7157 131.5 93.9082C131.158 94.1007 130.791 93.8914 130.511 93.6963C129.656 93.2079 128.887 92.7337 128.032 92.2453C127.578 92.0218 127.018 91.6316 127.077 90.9947C127.12 90.4547 127.427 90.2067 127.825 90.2222C128.984 90.2132 130.313 91.0776 131.208 91.8709Z" fill="black"/>
<path d="M128.06 93.9903C129.034 95.3934 129.993 96.8933 130.42 98.6542C130.566 99.1257 130.558 99.7213 130.2 100.011C129.995 100.176 129.684 100.175 129.439 100.035C129.195 99.8956 129.002 99.7147 128.86 99.4925C128.134 98.4783 127.7 97.313 127.179 96.1335C126.962 95.5508 126.693 95.0095 126.39 94.4126C126.228 94.038 125.904 93.2887 126.523 93.042C127.193 92.7539 127.741 93.4903 128.06 93.9903Z" fill="black"/>
<path d="M125.2 95.7099C125.429 95.9464 125.555 96.2655 125.682 96.5846C126.005 97.3339 126.364 98.1388 126.688 98.8881C127.209 100.068 127.714 101.344 127.908 102.619C127.947 102.924 127.987 103.229 127.889 103.561C127.842 103.852 127.621 104.114 127.381 104.224C127.105 104.278 126.809 104.18 126.581 103.943C126.352 103.707 126.261 103.443 126.135 103.124C125.361 101.306 124.793 99.3233 124.397 97.3687C124.338 96.9113 124.066 96.1207 124.266 95.706C124.432 95.2358 124.936 95.4179 125.2 95.7099Z" fill="black"/>
<path d="M122.447 97.596C122.96 99.3711 123.474 101.146 123.436 103.03C123.44 103.279 123.444 103.528 123.31 103.805C123.227 104.04 123.022 104.205 122.798 104.218C122.435 104.258 122.187 103.869 122.025 103.495C121.575 102.426 121.279 101.234 121.156 100.07C121.077 99.4601 121.049 98.809 121.056 98.2135C121.068 97.8672 121.02 97.0637 121.327 96.8157C121.958 96.2227 122.337 97.18 122.447 97.596Z" fill="black"/>
<path d="M120.219 95.6892C120.223 95.9385 120.141 96.1736 120.058 96.4088C119.574 97.4733 119.09 98.5377 118.641 99.6578C118.559 99.8929 118.425 100.169 118.184 100.279C117.944 100.389 117.629 100.138 117.538 99.8747C117.447 99.6112 117.459 99.265 117.506 98.9743C117.714 97.964 118.096 96.9822 118.722 96.14C118.942 95.8777 119.194 95.4217 119.486 95.2706C119.726 95.1608 120.179 95.3843 120.219 95.6892Z" fill="black"/>
<path d="M120.021 93.0701C119.76 91.9332 119.535 90.8519 119.274 89.715C119.143 89.1466 119.029 88.4813 119.174 87.8586C119.563 86.2812 120.647 85.9118 121.774 86.0966C122.866 86.2259 124.052 86.868 124.754 87.4804C125.7 88.2324 126.481 89.4546 126.399 90.7839C126.337 92.2657 125.234 93.5769 124.179 94.5974C123.821 94.8868 123.498 95.2317 123.017 95.4513C122.966 95.4926 122.828 95.5197 122.777 95.5611C122.296 95.7807 121.709 95.8336 121.22 95.5545C120.503 95.039 120.226 93.999 120.021 93.0701Z" fill="black"/>
<path d="M120.021 93.0701C119.76 91.9332 119.535 90.8519 119.274 89.715C119.143 89.1466 119.029 88.4813 119.174 87.8586C119.563 86.2812 120.647 85.9118 121.774 86.0966C121.309 86.2193 120.829 86.4387 120.577 86.8947C120.053 87.6543 120.192 88.7214 120.346 89.6916C120.555 90.8698 120.781 91.9512 120.99 93.1294C121.16 94.0027 121.401 94.9872 122.15 95.3089C122.446 95.4071 122.793 95.464 123.068 95.4097C123.017 95.451 122.879 95.4782 122.828 95.5195C122.347 95.7391 121.76 95.792 121.271 95.5129C120.503 95.0388 120.226 93.999 120.021 93.0701Z" fill="black"/>
<path d="M87.5972 69.0543C87.3842 68.721 87.2382 68.2494 87.3522 67.8205C87.3679 67.7236 87.4348 67.5854 87.5372 67.5027C87.8246 67.1023 88.3053 66.8827 88.6835 66.7458C88.2145 66.6191 87.9462 66.0778 87.9735 65.6347C88.0165 65.0947 88.3552 64.6529 88.7491 64.4191C89.1431 64.1853 89.6435 64.1181 90.1125 64.2448C90.2859 64.2732 90.4948 64.3572 90.6013 64.5239C90.7788 64.8016 90.7672 65.1478 90.6334 65.4243C90.4996 65.7008 90.2791 65.963 90.0585 66.2252C94.7516 65.5525 99.6501 65.8086 104.187 67.199C103.97 66.6163 104.131 65.8968 104.592 65.5247C104.796 65.3594 105.072 65.3051 105.348 65.2509C105.935 65.198 106.495 65.5882 106.763 66.1295C107.032 66.6708 107.044 67.4188 106.741 67.9162C106.473 68.4691 105.859 68.9651 105.287 68.9211C105.894 69.0207 106.253 69.8255 106.143 70.5038C106.08 70.8913 105.86 71.1536 105.588 71.4571C105.332 71.6638 105.092 71.7736 104.781 71.7723C104.142 71.8666 103.547 71.4208 103.192 70.8653C103.05 70.6431 102.959 70.3795 102.955 70.1302C102.951 69.8809 103.049 69.5489 103.254 69.3835C98.8239 68.1598 94.2326 67.6556 89.6536 67.8995C89.9847 68.0533 90.2926 68.8995 90.1943 69.2315C90.096 69.5635 89.7375 69.8528 89.4105 69.9484C89.0835 70.044 88.7012 69.9316 88.4568 69.792C88.1611 69.6938 87.8102 69.3876 87.5972 69.0543Z" fill="black"/>
<path d="M87.5972 69.0543C87.3842 68.721 87.2382 68.2494 87.3522 67.8205C87.3679 67.7236 87.4348 67.5854 87.5372 67.5027C87.5058 67.6965 87.4744 67.8904 87.4942 68.0429C87.5181 68.4446 87.7153 68.8749 88.0465 69.0286C88.3776 69.1824 88.878 69.1152 89.063 68.7974C89.2993 68.4383 89.2556 67.8841 88.9757 67.689C94.0708 67.2811 99.2138 67.6768 104.113 69.0271C103.617 69.3436 103.46 70.3125 103.779 70.8125C104.047 71.3538 104.725 71.5644 105.312 71.5115C105.45 71.4844 105.501 71.443 105.639 71.4159C105.383 71.6226 105.143 71.7324 104.832 71.7311C104.193 71.8254 103.598 71.3796 103.243 70.8241C103.101 70.6019 103.01 70.3383 103.006 70.089C103.002 69.8396 103.1 69.5076 103.305 69.3423C98.8751 68.1186 94.2838 67.6144 89.7048 67.8583C90.0359 68.012 90.3438 68.8582 90.2455 69.1902C90.1472 69.5223 89.7887 69.8116 89.4617 69.9072C89.1347 70.0028 88.7524 69.8904 88.508 69.7508C88.1611 69.6939 87.8102 69.3876 87.5972 69.0543Z" fill="black"/>
<path d="M105.474 71.8863C105.502 71.4432 105.702 71.0285 106.01 70.7805C106.112 70.6978 106.199 70.712 106.301 70.6293C106.715 70.548 107.219 70.7302 107.637 70.8982C107.389 70.5093 107.499 69.831 107.822 69.4861C108.144 69.1412 108.661 68.9772 109.078 69.1452C109.547 69.2718 109.898 69.578 110.182 70.0224C110.289 70.1891 110.395 70.3557 110.399 70.6051C110.388 70.9513 110.167 71.2135 109.876 71.3647C109.584 71.5158 109.308 71.5701 108.997 71.5687C112.782 74.5765 116.165 78.4137 118.607 82.8424C118.753 82.2197 119.352 81.8206 119.923 81.8646C120.183 81.9072 120.428 82.0467 120.621 82.2276C121.043 82.6449 121.244 83.3245 121.15 83.9058C121.004 84.5285 120.599 85.1085 120.031 85.3139C119.464 85.5193 118.77 85.4055 118.349 84.9882C118.704 85.5438 118.562 86.4158 118.05 86.8292C117.794 87.0358 117.467 87.1314 117.069 87.1159C116.758 87.1146 116.513 86.975 116.233 86.7799C115.725 86.3484 115.488 85.6133 115.598 84.9351C115.645 84.6444 115.728 84.4093 115.846 84.2297C116.015 84.0088 116.271 83.8021 116.48 83.8861C114.042 79.7067 111.057 75.8851 107.579 72.6293C107.705 72.9484 107.462 73.9031 107.17 74.0542C106.879 74.2053 106.48 74.1898 106.201 73.9947C105.921 73.7996 105.708 73.4663 105.581 73.1472C105.506 72.7868 105.447 72.3294 105.474 71.8863Z" fill="black"/>
<path d="M105.474 71.8861C105.502 71.4429 105.703 71.0283 106.01 70.7802C106.112 70.6976 106.199 70.7118 106.301 70.6291C106.148 70.7531 106.045 70.8358 105.927 71.0154C105.691 71.3745 105.612 71.8589 105.774 72.2336C105.936 72.6083 106.287 72.9144 106.665 72.7775C107.028 72.7375 107.331 72.2402 107.22 71.8242C111.151 75.3035 114.625 79.4042 117.332 84.1249C116.776 83.9841 116.094 84.6184 115.985 85.2966C115.875 85.9748 116.214 86.6273 116.652 86.9477C116.774 87.0174 116.86 87.0317 116.983 87.1014C116.671 87.1001 116.427 86.9606 116.147 86.7655C115.638 86.334 115.402 85.5989 115.511 84.9206C115.559 84.6299 115.641 84.3948 115.759 84.2153C115.929 83.9944 116.185 83.7877 116.394 83.8717C113.956 79.6922 110.97 75.8706 107.493 72.6148C107.619 72.9339 107.375 73.8886 107.084 74.0397C106.792 74.1909 106.394 74.1753 106.114 73.9802C105.834 73.7852 105.621 73.4518 105.495 73.1327C105.507 72.7865 105.447 72.3292 105.474 71.8861Z" fill="black"/>
<path d="M54.4083 141.743C54.381 142.186 54.4049 142.588 54.6179 142.921C54.8309 143.255 55.233 143.52 55.5757 143.327C55.9184 143.135 56.0325 142.706 56.0953 142.318C56.3035 141.308 56.5118 140.298 56.6846 139.232C56.7788 138.651 56.8887 137.972 56.4668 137.555C56.0804 137.193 55.7534 137.289 55.466 137.689C54.7218 138.711 54.4391 140.455 54.4083 141.743Z" fill="black"/>
<path d="M57.8281 140.414C58.1168 142.202 58.5435 143.963 59.4508 145.504C59.6992 145.893 60.0699 146.352 60.4994 146.174C60.7397 146.064 60.9602 145.802 61.0074 145.511C61.0545 145.22 61.0504 144.971 61.0108 144.666C60.8169 143.391 60.2961 142.211 59.8619 141.046C59.6448 140.463 59.4277 139.881 59.2618 139.257C59.1157 138.785 58.8434 137.995 58.2446 138.394C57.5946 138.834 57.7134 139.749 57.8281 140.414Z" fill="black"/>
<path d="M60.8659 138.972C60.8543 139.319 60.9806 139.638 61.1069 139.957C61.3793 140.747 61.7029 141.497 61.9753 142.287C62.4449 143.508 62.9146 144.729 63.6758 145.799C63.8178 146.021 64.0465 146.258 64.2909 146.397C64.5353 146.537 64.8466 146.538 65.1027 146.331C65.3587 146.125 65.457 145.793 65.4686 145.446C65.4802 145.1 65.354 144.781 65.2632 144.517C64.5409 142.658 63.6295 140.868 62.5488 139.298C62.3003 138.909 61.9255 138.201 61.492 138.13C61.023 138.003 60.8421 138.571 60.8659 138.972Z" fill="black"/>
<path d="M63.8562 137.821C64.7123 139.404 65.5684 140.987 66.7986 142.183C66.9563 142.308 67.1495 142.489 67.3584 142.573C67.5673 142.657 67.8431 142.603 67.9613 142.423C68.233 142.12 68.0869 141.648 67.9251 141.274C67.4752 140.205 66.8874 139.164 66.1815 138.302C65.8108 137.844 65.3889 137.426 64.967 137.009C64.7383 136.773 64.2454 136.244 63.8317 136.325C63.3155 136.49 63.6432 137.488 63.8562 137.821Z" fill="black"/>
<path d="M64.0986 134.679C64.2406 134.901 64.5007 134.943 64.6741 134.972C65.6989 135.239 66.7236 135.507 67.7839 135.83C67.9928 135.914 68.2529 135.957 68.4577 135.791C68.6626 135.626 68.7254 135.238 68.6346 134.975C68.5438 134.711 68.2639 134.516 68.0195 134.377C67.2153 133.847 66.2772 133.594 65.3432 133.59C65.0319 133.588 64.5472 133.559 64.2557 133.71C64.0508 133.875 63.8699 134.442 64.0986 134.679Z" fill="black"/>
<path d="M62.4425 132.816C61.839 131.871 61.2355 130.927 60.632 129.982C60.3125 129.482 59.9575 128.927 59.4687 128.648C58.1955 127.991 57.2383 128.68 56.6163 129.771C55.9943 130.863 55.6365 132.247 55.5661 133.23C55.4842 134.559 55.7845 136.001 56.6795 136.794C57.7323 137.713 59.3046 137.622 60.6482 137.296C61.1131 137.173 61.5268 137.092 61.9208 136.858C61.972 136.816 62.1099 136.789 62.1611 136.748C62.6574 136.432 63.0473 135.948 63.177 135.423C63.4208 134.468 62.9395 133.593 62.4425 132.816Z" fill="black"/>
<path d="M62.4425 132.816C61.839 131.871 61.2355 130.927 60.632 129.982C60.3125 129.482 59.9575 128.927 59.4687 128.648C58.1955 127.991 57.2383 128.68 56.6163 129.771C57.0259 129.441 57.4198 129.207 57.9046 129.237C58.7873 129.282 59.4065 130.13 59.9035 130.907C60.507 131.852 61.1617 132.755 61.7652 133.699C62.2267 134.421 62.7592 135.255 62.4799 136.154C62.3816 136.486 62.1611 136.748 61.9405 137.01C61.9918 136.969 62.1297 136.942 62.1809 136.901C62.6772 136.584 63.0671 136.101 63.1968 135.575C63.4208 134.468 62.9395 133.593 62.4425 132.816Z" fill="black"/>
<path d="M67.4997 88.9844C67.3891 88.5684 67.1918 88.1382 66.8607 87.9845C66.774 87.9703 66.6518 87.9005 66.5651 87.8863C66.1671 87.8707 65.6352 88.1317 65.328 88.3797C65.5288 87.965 65.3629 87.341 65.012 87.0348C64.6611 86.7286 64.1251 86.7402 63.6957 86.9185C63.2662 87.0967 62.9276 87.5385 62.7269 87.9532C62.6087 88.1328 62.5261 88.3679 62.5814 88.5759C62.621 88.8808 62.8497 89.1172 63.1453 89.2154C63.4409 89.3136 63.7523 89.3149 64.0281 89.2607C60.5427 92.9165 57.5543 97.3501 55.5237 102.189C55.3066 101.607 54.6444 101.299 54.1283 101.463C53.8524 101.517 53.6476 101.683 53.4271 101.945C53.0372 102.428 52.8761 103.148 53.0932 103.73C53.2591 104.354 53.7677 104.786 54.3234 104.927C54.8791 105.068 55.5844 104.835 55.9742 104.352C55.6554 104.946 55.9121 105.834 56.4876 106.127C56.7675 106.322 57.13 106.282 57.4414 106.283C57.7172 106.229 57.9732 106.023 58.2292 105.816C58.6703 105.291 58.8314 104.572 58.6812 103.851C58.626 103.643 58.5352 103.379 58.342 103.198C58.1488 103.018 57.9043 102.878 57.664 102.988C59.6987 98.3979 62.3601 94.0599 65.4788 90.1948C65.416 90.5824 65.7239 91.4286 66.0195 91.5268C66.3506 91.6805 66.7289 91.5436 66.9849 91.3369C67.2409 91.1303 67.4416 90.7156 67.54 90.3836C67.5318 89.8849 67.5591 89.4418 67.4997 88.9844Z" fill="black"/>
<path d="M67.5 88.9847C67.3894 88.5687 67.1921 88.1385 66.861 87.9848C66.7743 87.9705 66.6521 87.9008 66.5654 87.8865C66.6876 87.9563 66.8453 88.0816 67.003 88.207C67.2672 88.499 67.4133 88.9705 67.2638 89.3439C67.1498 89.7728 66.7913 90.0621 66.4288 90.1021C66.0308 90.0866 65.6956 89.6835 65.7584 89.2959C62.1433 93.4776 59.1077 98.2018 56.8054 103.345C57.3373 103.084 58.0548 103.599 58.2207 104.223C58.3866 104.847 58.1387 105.553 57.6622 106.022C57.5598 106.104 57.4573 106.187 57.3549 106.27C57.6308 106.215 57.8868 106.009 58.1428 105.802C58.5839 105.277 58.745 104.558 58.5948 103.837C58.5395 103.629 58.4487 103.365 58.2555 103.185C58.0623 103.004 57.8179 102.864 57.5776 102.974C59.6123 98.384 62.2736 94.046 65.3924 90.1809C65.3296 90.5684 65.6375 91.4146 65.9331 91.5128C66.2642 91.6666 66.6424 91.5297 66.8985 91.323C67.1545 91.1163 67.3552 90.7016 67.4536 90.3696C67.5321 89.8852 67.5594 89.4421 67.5 88.9847Z" fill="black"/>
<path d="M57.7729 106.437C57.4574 106.187 57.0396 106.019 56.6969 106.211C56.5945 106.294 56.5078 106.28 56.4409 106.418C56.0824 106.707 55.9015 107.274 55.7875 107.703C55.6926 107.19 55.2038 106.911 54.7545 106.937C54.3053 106.963 53.8799 107.39 53.6792 107.805C53.514 108.275 53.471 108.815 53.5658 109.328C53.6211 109.536 53.6764 109.744 53.8341 109.87C54.0628 110.106 54.4254 110.066 54.6302 109.901C54.9217 109.749 55.1422 109.487 55.3116 109.266C54.826 114.458 55.1917 119.89 56.5188 124.882C55.9788 124.644 55.3602 124.89 55.0059 125.429C54.872 125.706 54.7894 125.941 54.7778 126.287C54.8058 126.938 55.1096 127.535 55.5984 127.814C56.0872 128.093 56.7611 128.054 57.2574 127.738C57.7538 127.421 58.175 126.745 58.147 126.093C58.2617 126.759 58.9949 127.177 59.5978 127.028C59.9248 126.932 60.2321 126.684 60.4171 126.366C60.5864 126.145 60.6847 125.813 60.6963 125.467C60.7196 124.775 60.3803 124.122 59.8717 123.691C59.714 123.565 59.4696 123.426 59.245 123.439C59.0203 123.452 58.6933 123.547 58.6107 123.782C57.3901 118.957 56.8393 113.844 56.9112 108.733C57.0375 109.052 57.8219 109.429 58.1134 109.278C58.405 109.127 58.6412 108.768 58.704 108.38C58.7668 107.993 58.6918 107.632 58.53 107.258C58.388 107.035 58.0883 106.688 57.7729 106.437Z" fill="black"/>
<path d="M57.7729 106.437C57.4574 106.187 57.0396 106.019 56.6969 106.211C56.5945 106.294 56.5078 106.28 56.4409 106.418C56.63 106.349 56.7681 106.322 56.9415 106.351C57.3395 106.366 57.7061 106.576 57.8679 106.95C58.0297 107.325 57.9512 107.809 57.6794 108.113C57.3722 108.361 56.8875 108.331 56.6745 107.998C56.4217 113.676 56.9295 119.329 58.3159 124.778C58.5835 124.225 59.4622 124.021 59.951 124.3C60.4753 124.635 60.6767 125.315 60.618 125.952C60.6023 126.048 60.5709 126.242 60.5552 126.339C60.7245 126.118 60.8228 125.786 60.8344 125.44C60.8577 124.747 60.5184 124.095 60.0098 123.664C59.852 123.538 59.6076 123.399 59.383 123.412C59.1584 123.424 58.8314 123.52 58.7488 123.755C57.5282 118.93 56.9774 113.817 57.0493 108.706C57.1756 109.025 57.96 109.402 58.2515 109.251C58.543 109.1 58.7793 108.741 58.8421 108.353C58.9049 107.966 58.8298 107.605 58.668 107.231C58.3881 107.036 58.0883 106.688 57.7729 106.437Z" fill="black"/>
<path d="M59.1475 39.4732C59.2731 38.698 59.7654 38.1322 60.4392 38.0935C57.6812 32.3199 55.3997 26.0773 53.4139 19.9329C53.2487 20.4032 52.6103 20.4974 52.1925 20.3295C51.7747 20.1615 51.4907 19.7171 51.4825 19.2184C51.4982 19.1215 51.4784 18.9691 51.4941 18.8722C51.557 18.4846 51.742 18.1668 52.0137 17.8632C52.2342 17.601 52.4746 17.4912 52.7859 17.4925C53.0617 17.4383 53.3573 17.5365 53.4836 17.8556C53.5423 17.2187 53.8612 16.6244 54.3575 16.308C54.8539 15.9915 55.4765 15.9941 55.9496 16.3701C56.4228 16.7461 56.5729 17.4669 56.392 18.0341C56.1598 18.6425 55.4034 18.9163 54.8477 18.7755C56.5775 25.1265 58.977 31.1895 61.9754 36.8534C62.5857 36.108 63.8112 35.9608 64.4973 36.6701C65.0967 37.3652 65.066 38.6532 64.4201 39.343C63.7742 40.0329 62.5802 39.9863 62.032 39.2499C62.0046 39.693 61.9418 40.0805 61.879 40.4681C61.765 40.897 61.5799 41.2148 61.2727 41.4628C61.1191 41.5868 60.93 41.6553 60.7053 41.6682C60.4807 41.6811 60.2206 41.6384 60.0117 41.5545C59.4164 41.1087 59.0218 40.2483 59.1475 39.4732Z" fill="black"/>
<path d="M59.1475 39.4732C59.2731 38.698 59.7654 38.1322 60.4392 38.0935C57.6812 32.3199 55.3997 26.0773 53.4139 19.9329C53.2487 20.4032 52.6103 20.4974 52.1925 20.3295C51.7747 20.1615 51.4907 19.7171 51.4825 19.2184C51.4982 19.1215 51.4784 18.9691 51.4941 18.8722C51.5849 19.1357 51.6757 19.3993 51.8689 19.5802C52.1488 19.7753 52.4956 19.8322 52.7872 19.681C53.0787 19.5299 53.4726 19.2961 53.5354 18.9085C55.9473 25.7196 58.5127 32.4066 61.2673 39.0251C60.885 38.9127 60.42 39.0354 60.1128 39.2834C59.7544 39.5728 59.5891 40.043 59.6485 40.5003C59.6881 40.8052 59.8656 41.083 60.0588 41.2639C60.252 41.4448 60.4097 41.5701 60.6186 41.6541C60.394 41.667 60.1339 41.6243 59.925 41.5403C59.4164 41.1088 59.0218 40.2483 59.1475 39.4732Z" fill="black"/>
<path d="M46.06 52.3968C45.6387 53.0737 45.6155 53.7662 46.0927 54.3915C40.3837 56.3897 34.6515 59.0803 29.1992 61.966C29.3644 61.4958 29.0094 60.9402 28.5916 60.7723C28.1738 60.6043 27.6734 60.6714 27.2992 61.0577C27.1968 61.1404 27.1811 61.2372 27.0787 61.3199C26.8937 61.6377 26.7796 62.0666 26.768 62.4129C26.8076 62.7177 26.8827 63.0782 27.0247 63.3004C27.2022 63.5782 27.4978 63.6764 27.7381 63.5666C27.3483 64.0497 27.2383 64.7279 27.3687 65.2964C27.4991 65.8648 27.992 66.3932 28.5122 66.4785C29.0325 66.5638 29.6667 66.2202 29.8989 65.6118C30.131 65.0033 29.7719 64.1984 29.2831 63.9194C34.6958 60.7288 40.3966 58.2319 46.2476 56.4559C46.1772 57.4391 46.9896 58.4675 47.9236 58.4714C48.8221 58.4198 49.6373 57.5091 49.6209 56.5117C49.6045 55.5144 48.7607 54.6798 47.8623 54.7314C48.134 54.4278 48.3702 54.0687 48.5553 53.7509C48.7048 53.3775 48.8188 52.9486 48.7437 52.5882C48.6884 52.3802 48.6331 52.1722 48.4754 52.0469C48.3334 51.8247 48.1245 51.7407 47.8801 51.6011C47.3244 51.4603 46.4812 51.7199 46.06 52.3968Z" fill="black"/>
<path d="M46.06 52.3968C45.6387 53.0737 45.6155 53.7662 46.0927 54.3915C40.3837 56.3897 34.6515 59.0803 29.1992 61.966C29.3644 61.4958 29.0094 60.9402 28.5916 60.7723C28.1738 60.6043 27.6734 60.6714 27.2992 61.0577C27.1968 61.1404 27.1811 61.2372 27.0787 61.3199C27.2835 61.1546 27.5593 61.1007 27.8195 61.1433C28.1308 61.1446 28.395 61.4366 28.5213 61.7557C28.6476 62.0748 28.7425 62.5877 28.5219 62.8499C34.6638 59.8286 40.8609 57.0153 47.2001 54.4242C46.8847 54.1735 46.6362 53.7847 46.5256 53.3687C46.4662 52.9113 46.6314 52.4411 46.9898 52.1517C47.1947 51.9864 47.5217 51.8908 47.7818 51.9335C48.0064 51.9206 48.2153 52.0045 48.4243 52.0885C48.2823 51.8663 48.0733 51.7823 47.8289 51.6428C47.3244 51.4606 46.4812 51.7199 46.06 52.3968Z" fill="black"/>
<path d="M83.5858 98.2267C87.0177 98.1416 90.5909 100.461 90.5867 103.486C90.5825 106.511 86.9657 109.096 83.5338 109.181C80.1019 109.266 78.1837 106.87 78.1879 103.845C78.2275 100.875 80.1893 98.3673 83.5858 98.2267Z" fill="#BEBDE6"/>
<path d="M99.2634 94.9258C98.6494 98.6976 95.8404 102.31 93.1576 101.872C90.4748 101.435 88.9567 97.1168 89.5707 93.3449C90.1847 89.5731 92.6946 87.7982 95.3774 88.2358C98.0602 88.6733 99.9128 91.2093 99.2634 94.9258Z" fill="#BEBDE6"/>
<path d="M85.9557 96.4652C86.6102 96.5225 87.1863 95.9737 87.59 95.3968C87.7742 95.0808 87.9585 94.7647 87.9703 94.4206C88.033 94.0353 87.9586 93.677 87.7313 93.4422C87.504 93.2074 87.1238 93.096 86.8338 93.2465C86.5948 93.3558 86.4615 93.6307 86.3792 93.8645C86.2968 94.0983 86.336 94.4013 86.2889 94.6903C86.0264 94.4003 85.4777 94.5086 85.2073 94.8105C84.9368 95.1125 84.9094 95.553 85.07 95.9253C85.2816 96.2564 85.6461 96.4642 85.9557 96.4652Z" fill="white"/>
</svg>
